<?xml version="1.0" standalone="no"?> <!DOCTYPE svg PUBLIC "-//W3C//DTD SVG 1.0//EN" "http://www.w3.org/TR/2001/REC-SVG-20010904/DTD/svg10.dtd" > <svg xmlns="http://www.w3.org/2000/svg" width="100%" height="100%">
<defs >
<font horiz-adv-x="1021" ><font-face
    font-family="HanWangKanDaYan"
    units-per-em="1024"
    panose-1="2 0 5 0 0 0 0 0 0 0"
    ascent="825"
    descent="-211"
    alphabetic="0" />
<missing-glyph horiz-adv-x="1024" />
<glyph unicode=" " glyph-name="space" horiz-adv-x="512" />
<glyph unicode="!" glyph-name="exclam" horiz-adv-x="0" />
<glyph unicode="&quot;" glyph-name="quotedbl" horiz-adv-x="445" d="M150 745Q190 755 238 733Q253 723 268 729Q309 737 350 717Q420 682 404 609Q400 591 387 569L311 415Q294 390 280 381Q234 355 180 385Q168 396 150 389Q107 375 61 403Q39 416 29 439Q13
479 46 559Q68 619 88 679Q101 722 150 745ZM161 702Q152 700 142 688Q128 671 122 649Q91 570 67 489Q51 450 104 432Q136 421 161 446Q173 461 183 486Q211 546 242 606Q254 628 256 646Q258 668 235 685Q197 710 161 702ZM327 679Q304 691 276 684Q274 682 279
658Q283 620 258 582Q224 514 192 447Q188 427 213 417Q240 407 258 419Q274 429 285 453Q313 513 343 573Q357 598 362 613Q378 656 327 679Z" />
<glyph unicode="#" glyph-name="numbersign" horiz-adv-x="858" d="M298 737Q359 742 415 713Q422 710 430 703Q450 680 452 680Q493 728 540 735Q603 744 660 718Q719 685 726 627Q728 619 728 611Q727 587 730 583Q737 576 750 574Q775 567 796 536Q820 498
820 456Q819 410 792 376Q756 335 711 338Q699 333 699 307Q698 282 699 280Q702 277 707 276Q753 268 780 231Q815 165 790 100Q759 39 701 36Q690 36 679 34Q673 30 672 26Q673 -70 594 -107Q506 -143 418 -87Q394 -64 372 -85Q338 -115 296 -118Q238 -129 173
-93Q122 -60 118 1Q118 28 117 31T112 37Q67 48 37 96Q12 167 44 227Q57 251 78 262Q102 277 128 277Q140 276 143 289Q148 320 145 336Q142 338 137 340Q105 344 77 373Q42 415 46 470Q48 511 78 550Q110 577 138 579Q151 581 165 581Q177 589 175 608Q179 679
243 721Q268 733 298 737ZM303 694Q274 693 249 671Q227 647 225 631Q217 594 213 561Q211 533 188 537Q152 540 121 528Q111 522 103 510Q80 473 94 430Q97 412 123 392Q149 376 179 382Q190 382 194 368Q194 358 192 348Q188 308 185 268Q184 258 182 248Q177
234 166 233Q133 235 113 229Q99 225 93 218Q60 181 73 129Q75 112 96 93Q111 81 127 79Q149 79 153 77Q157 77 163 67Q165 57 163 44Q157 10 171 -30Q203 -72 250 -76Q325 -86 358 -32Q367 -15 370 8L373 48Q374 83 406 78Q423 73 421 57Q411 9 428 -31Q457 -71
513 -77Q557 -80 589 -60Q596 -56 608 -42Q627 -13 629 38Q629 67 643 77Q650 81 665 78Q704 75 733 93Q763 123 756 169Q750 221 699 233Q684 234 666 232Q648 237 651 257Q654 297 658 337Q660 363 664 372Q675 387 710 382Q731 384 747 392Q781 422 775 470Q773
489 761 510Q741 540 702 536Q683 533 681 554Q691 607 679 637Q672 657 648 675Q589 705 530 685Q484 665 478 616Q473 586 470 556Q466 546 461 540Q441 531 431 541Q424 546 425 555Q438 607 417 648Q401 673 381 680Q341 696 303 694ZM417 380Q448 389 449
359L441 279Q443 250 431 238Q406 224 396 244Q392 251 395 267Q398 307 403 347Q404 364 409 372Q412 377 417 380Z" />
<glyph unicode="$" glyph-name="dollar" horiz-adv-x="834" d="M376 764Q418 775 460 744Q469 735 476 732Q571 725 670 650Q714 611 736 566Q771 499 766 437Q763 408 740 381Q717 358 719 354Q765 310 780 265Q795 221 792 158Q787 78 718 -2Q700 -19 678 -34Q599
-87 518 -100L478 -107Q469 -111 459 -122Q422 -153 379 -142Q353 -139 321 -104Q311 -96 291 -94Q222 -80 151 -39Q79 5 49 72Q12 164 30 259Q41 298 78 328Q89 334 80 347Q26 438 51 528Q70 606 146 665Q237 729 316 735Q326 736 336 742Q354 757 376 764ZM383
720Q369 717 360 702Q357 695 326 690Q253 687 168 626Q150 614 124 583Q66 491 99 408Q105 389 120 368Q132 348 149 344Q212 349 255 328Q289 314 299 276Q298 258 320 255Q346 250 356 236Q357 232 357 203Q358 172 356 141Q349 124 319 140Q288 151 275 190Q267
216 269 246Q266 272 255 286Q207 317 159 309Q139 305 119 300Q81 281 72 248Q59 184 81 113Q107 24 209 -21Q275 -50 346 -60Q355 -67 357 -72Q360 -88 380 -96Q419 -111 439 -73Q441 -66 457 -63Q514 -61 577 -38Q772 44 746 220Q739 289 666 337Q653 348 636
343Q593 331 542 354Q527 360 513 381Q505 391 495 393Q475 397 455 402Q448 404 443 414Q441 419 441 449V501Q445 515 458 512Q495 503 519 455Q528 436 534 415Q539 395 566 382Q626 362 691 395Q730 422 723 462Q717 504 699 542Q677 591 628 627Q544 686 448
692Q441 694 439 698Q435 710 424 716Q407 727 383 720ZM312 468Q318 500 345 506Q353 505 355 502Q357 498 357 466Q357 433 356 430Q351 417 340 423Q311 438 312 468ZM443 219Q451 234 463 230Q489 228 518 215Q565 178 528 142Q511 129 488 124Q459 117 446
125Q439 134 441 164V184Q441 214 443 219ZM494 172Q500 176 486 179Q484 175 485 172Q485 167 494 172Z" />
<glyph unicode="%" glyph-name="percent" horiz-adv-x="910" d="M157 714Q261 759 370 721Q458 687 498 597Q505 572 508 569Q512 569 533 592Q564 627 598 663Q693 784 800 677Q872 589 794 509Q742 454 690 396Q671 372 672 370Q714 363 755 339Q801 308 826
272Q881 182 867 85Q848 -48 711 -110Q632 -142 541 -114Q452 -89 400 3Q393 15 389 27Q381 50 379 49Q353 25 331 0L257 -82Q175 -154 95 -77Q11 7 74 87Q130 152 191 216Q213 241 212 242Q208 247 193 250Q90 279 41 392Q10 467 36 573Q66 669 157 714ZM257 694Q204
690 161 666Q82 618 68 512Q64 463 80 413Q83 397 99 373Q131 326 173 306Q209 288 253 282Q356 274 430 363Q493 447 468 547Q461 585 427 627Q411 648 389 662Q322 699 257 694ZM709 683Q682 686 655 659Q600 602 545 541Q521 516 512 501Q507 488 507 463Q502
375 419 301Q362 258 299 252Q278 251 260 228Q189 148 115 68Q78 24 99 -12Q171 -121 248 -28Q300 32 356 92Q381 116 383 133Q383 174 396 215Q447 341 574 359Q599 362 621 384Q693 465 768 547Q820 606 749 664Q735 674 709 683ZM257 529Q276 536 290 528Q312
516 313 492Q304 441 263 446Q242 448 231 475Q219 508 257 529ZM739 296Q650 347 567 323Q490 305 449 243Q391 135 436 29Q458 -16 503 -49Q539 -74 583 -79Q652 -89 707 -63Q753 -44 785 0Q829 63 825 134Q823 176 808 214Q783 266 739 296ZM590 156Q613 176
644 160Q672 137 661 111Q651 83 617 80Q587 83 579 116Q575 139 590 156Z" />
<glyph unicode="&amp;" glyph-name="ampersand" horiz-adv-x="836" d="M306 734L355 738H426Q537 731 626 659Q711 589 728 496Q741 444 726 414Q722 404 716 394Q691 367 692 363T696 355Q705 348 714 337Q765 260 755 163Q755 153 757 150Q795 129 804 101Q830
23 797 -37Q768 -81 721 -98Q667 -117 600 -104L580 -99Q567 -90 550 -97Q479 -125 395 -127H327Q244 -121 167 -84Q78 -39 40 51Q28 83 23 133Q20 186 37 239Q52 284 81 319Q98 336 88 349Q52 407 49 469Q44 514 60 567Q70 607 106 647Q122 664 146 679Q216 727
306 734ZM362 694Q294 689 259 682Q218 672 179 650Q130 617 110 574T92 476Q96 419 123 376Q130 366 139 357Q158 337 146 322Q106 287 88 249Q62 187 68 123Q73 78 91 43Q118 -1 161 -30Q242 -78 323 -83H408Q443 -81 485 -70Q510 -62 483 -47Q386 18 350 114Q343
122 329 121Q306 124 289 132Q245 162 264 209Q267 218 279 229Q308 253 339 252Q344 252 351 263Q359 305 395 354Q400 387 354 398H328Q311 400 296 421Q274 461 308 485Q325 496 348 496Q403 503 446 489Q487 472 497 427Q508 403 532 404Q571 404 608 394Q625
389 636 389Q654 392 675 416Q690 432 691 456Q685 512 646 576Q582 655 493 681Q458 690 420 694H362ZM361 452Q343 452 338 450Q331 447 334 444Q337 442 361 442Q395 436 421 410Q437 381 455 406Q458 437 424 450Q397 457 361 452ZM554 369Q494 376 445 346Q428
335 410 312Q384 270 375 205Q372 157 392 108Q432 20 527 -30Q627 -86 717 -52Q752 -33 766 1Q781 53 758 94Q743 111 718 115Q683 122 658 134Q637 147 655 166Q659 168 691 160Q710 150 712 171Q714 206 709 236Q699 286 676 314Q633 358 554 369ZM538 242Q573
253 583 210Q587 182 581 161Q568 126 538 159Q505 192 524 231Q530 239 538 242ZM324 204Q303 199 303 182Q301 175 314 170Q326 164 331 172Q333 187 332 202Q330 204 324 204Z" />
<glyph unicode="&apos;" glyph-name="quotesingle" horiz-adv-x="332" d="M97 729Q170 756 241 710Q263 694 278 674Q302 636 296 591Q282 506 226 430Q184 383 137 404Q91 430 83 475Q83 495 82 497Q81 503 67 513Q45 531 33 551Q14 592 22 637Q27 671 50 698Q66
721 97 729ZM129 693Q52 679 61 594Q63 575 80 558Q104 541 106 541Q109 542 113 547Q119 560 131 561Q135 562 142 555Q149 541 132 516Q127 506 125 496Q116 472 147 448Q186 425 223 500Q262 575 256 620Q252 652 216 675Q176 700 129 693Z" />
<glyph unicode="(" glyph-name="parenleft" horiz-adv-x="404" d="M231 763Q279 772 321 739Q410 661 352 571Q256 401 269 266Q277 191 321 106Q343 66 363 26Q382 -14 372 -55Q355 -114 296 -143Q280 -151 260 -154Q197 -157 143 -73Q38 108 30 286Q30 470 120
639Q144 686 169 719Q196 755 231 763ZM306 694Q248 749 201 693Q123 580 91 453Q45 291 107 100Q138 8 184 -60Q217 -112 259 -109Q302 -104 330 -49Q338 -35 333 -13Q323 15 295 67Q236 172 228 269V335Q237 442 308 575Q325 601 329 615Q346 658 306 694Z" />
<glyph unicode=")" glyph-name="parenright" horiz-adv-x="404" d="M84 750Q172 797 235 697Q289 611 314 537Q351 432 357 337Q364 167 280 -11Q254 -68 216 -111Q179 -149 141 -154Q97 -157 55 -117Q-9 -53 26 23Q46 63 67 103Q136 235 116 363Q97 455 61 523Q30
579 22 603Q0 660 45 718Q62 737 84 750ZM180 701Q141 739 91 703Q45 666 57 624Q60 612 75 584Q123 500 143 424Q187 284 126 134Q106 87 67 14Q41 -31 68 -66Q85 -90 104 -100Q134 -117 154 -104Q178 -91 197 -69Q301 86 317 281V332Q304 497 213 652Q200 680
180 701Z" />
<glyph unicode="*" glyph-name="asterisk" horiz-adv-x="506" d="M213 760Q252 772 282 756Q309 740 317 721Q332 694 331 646Q330 636 330 633Q335 627 347 635Q360 641 387 649Q429 663 467 611Q489 571 475 521Q452 478 411 468Q387 457 402 433Q462 344 371
282Q352 273 326 273Q299 278 270 310Q251 334 248 335Q245 335 227 312Q212 287 179 277Q136 265 93 304Q39 358 87 434Q100 458 99 460Q97 462 87 465Q41 478 16 523Q1 578 30 620Q45 641 66 648Q90 657 134 640Q158 630 158 656Q158 700 177 730Q190 752 213
760ZM232 720Q216 717 207 697Q195 667 204 609Q203 581 228 566Q242 549 225 544Q214 543 197 556Q151 589 97 606Q83 610 77 605Q56 592 53 568Q45 528 96 509Q115 501 146 494Q155 491 166 502Q200 534 226 531Q245 529 266 507Q288 478 267 427Q253 400 282
365Q307 325 336 318Q375 322 384 366Q383 395 341 441Q319 464 298 480Q285 491 284 493Q277 508 293 510Q305 510 315 498Q327 488 345 494Q390 503 425 525Q445 545 437 575Q437 585 422 600Q410 611 397 607Q377 600 357 591Q321 576 297 558Q264 543 262 545Q249
557 266 569Q276 576 279 581Q286 602 289 643Q293 674 280 700Q260 729 232 720ZM230 502Q207 510 173 473Q123 425 108 374Q105 337 147 322Q165 313 187 331Q239 400 251 471Q254 488 230 502Z" />
<glyph unicode="+" glyph-name="plus" horiz-adv-x="838" d="M292 653Q353 710 435 696Q550 683 565 567V489Q565 465 568 462T595 459H671Q718 454 751 422Q785 385 789 342Q795 303 785 253Q760 167 672 156Q667 154 637 154H595Q571 154 568 152Q565 149 565
125V53Q563 30 557 13Q546 -29 502 -57Q429 -92 357 -72Q267 -45 257 47V124Q257 148 256 149Q249 157 225 154H155Q136 156 115 163Q73 174 45 226Q9 318 50 399Q79 444 125 453L152 459H227Q251 459 253 461Q256 463 256 465Q257 467 257 491V572Q260 611 292
653ZM470 643Q401 667 346 640Q303 613 300 562V461Q300 431 298 426Q296 419 289 416Q286 415 256 415H155Q110 413 81 366Q67 318 75 272Q86 221 131 204L159 198H254Q284 198 287 197Q292 197 299 186Q300 183 300 153V54Q303 21 326 -6Q342 -23 366 -29Q417
-40 457 -27Q516 -9 521 49V181Q525 198 541 198H666Q712 203 739 249Q763 318 730 378Q708 411 668 415H568Q538 415 533 417Q529 417 523 427Q521 431 521 461V571Q514 621 470 643Z" />
<glyph unicode="," glyph-name="comma" horiz-adv-x="346" d="M138 129Q180 136 230 111Q277 88 295 42Q316 -14 279 -94Q261 -140 235 -174Q177 -244 114 -182Q85 -152 88 -122Q90 -105 60 -86Q24 -55 23 -7Q21 34 42 73Q76 126 138 129ZM137 85Q111 82 97 72Q56
40 63 -11Q65 -36 93 -59Q106 -74 119 -59Q125 -47 138 -48Q154 -55 145 -78Q133 -99 127 -118Q124 -132 139 -148Q175 -188 206 -142Q246 -87 261 -22Q277 54 185 83Q166 89 137 85Z" />
<glyph unicode="-" glyph-name="hyphen" horiz-adv-x="796" d="M80 456Q101 466 135 471H647Q720 465 753 395Q779 337 758 256Q740 209 694 185Q676 175 645 171H133Q89 175 54 207Q-7 281 20 381Q30 424 80 456ZM139 426Q111 424 90 408Q66 391 63 370Q50 334
61 281Q79 223 130 216H646Q668 220 686 232Q706 245 711 259Q738 326 710 387Q689 420 650 426H139Z" />
<glyph unicode="." glyph-name="period" horiz-adv-x="346" d="M136 127Q182 135 226 118Q266 105 291 57Q315 11 294 -43Q285 -68 263 -87Q231 -114 183 -121Q140 -125 99 -111Q57 -96 32 -44Q14 10 33 51Q63 116 136 127ZM217 75Q152 97 97 67Q56 36 64 -8Q68
-53 122 -72Q176 -88 216 -67Q263 -40 264 6Q263 48 217 75Z" />
<glyph unicode="/" glyph-name="slash" horiz-adv-x="350" d="M217 760Q250 769 290 753Q339 736 353 689Q367 639 343 559Q277 259 213 -41Q207 -87 159 -114Q110 -139 50 -105Q24 -87 15 -68Q-3 -31 4 14Q72 334 142 654Q149 700 177 734Q196 754 217 760ZM231
717Q192 702 187 666Q120 364 48 26Q37 -2 43 -32Q45 -48 63 -61Q94 -84 129 -80Q147 -79 166 -52Q173 -39 177 -12L316 628Q322 656 315 676Q304 701 282 709Q252 721 231 717Z" />
<glyph unicode="0" glyph-name="zero" horiz-adv-x="692" d="M304 736Q427 750 524 677Q568 640 580 596Q584 576 596 556Q618 521 632 476Q650 411 654 341V266Q649 125 595 24Q544 -74 443 -108Q358 -141 261 -117Q173 -97 102 -6Q61 55 46 114Q30 187 26 255V348Q35
501 83 588Q141 688 224 717Q261 730 304 736ZM430 679Q330 713 226 672Q184 651 152 613Q118 572 104 533Q75 441 70 346V253Q74 165 99 93Q132 -3 219 -53Q349 -116 470 -47Q509 -27 540 16Q607 124 610 254V348Q605 444 574 508Q525 604 431 557Q396 534 389
501Q387 491 390 481Q421 416 422 361L425 326V269Q421 197 399 149Q390 127 367 113Q308 81 269 168Q252 211 249 277V342Q253 417 277 462Q296 499 335 506Q351 506 353 508Q373 573 447 603Q474 611 505 607Q529 601 529 603Q528 614 512 628Q481 661 430 679ZM339
462Q324 461 313 439Q294 398 292 339V273Q294 206 325 157Q343 136 362 174Q393 256 380 360Q373 408 360 440Q353 463 339 462Z" />
<glyph unicode="1" glyph-name="one" horiz-adv-x="692" d="M154 640Q282 751 396 736Q471 722 505 659Q523 627 526 586V-1Q526 -40 492 -81Q474 -103 452 -109Q408 -130 361 -123Q317 -118 281 -89Q247 -56 243 -2V343Q243 367 241 371Q238 374 213 375Q148
386 117 466Q100 513 110 560Q115 602 154 640ZM443 668Q357 731 224 640Q145 592 150 517Q153 466 185 436Q202 422 225 417Q244 414 275 436L315 459Q324 463 332 461Q350 452 338 435Q331 427 304 412Q296 408 288 396Q286 392 286 369V-2Q290 -27 298 -42Q312
-63 336 -72Q378 -86 416 -76Q475 -59 482 -3V588Q478 637 443 668Z" />
<glyph unicode="2" glyph-name="two" horiz-adv-x="692" d="M325 737Q374 739 404 734Q494 722 566 651Q632 574 639 480Q642 430 625 378Q579 250 449 184Q423 168 447 168H549Q622 157 647 86Q662 22 641 -28Q616 -92 546 -100H176Q101 -95 58 -43Q44 -25 37
-3Q-12 152 156 288Q186 311 223 336Q246 352 223 344Q197 337 165 339L125 345Q53 367 45 443Q42 550 101 626Q137 672 183 697Q232 725 303 734L325 737ZM443 678Q328 714 229 671Q178 652 136 602Q94 551 88 482Q85 449 92 429Q109 389 153 386Q195 378 225
391Q264 406 270 440Q277 474 292 495Q305 513 333 518Q365 523 392 508Q429 477 411 433Q398 408 381 393Q351 363 322 347Q241 297 162 235Q61 148 69 57Q71 37 77 17Q86 -26 139 -48Q159 -55 182 -57H544Q588 -51 603 -9Q617 26 605 77Q598 98 573 114Q561 122
542 125H375Q351 125 341 121Q326 111 307 83Q297 69 286 73Q265 85 285 110Q343 182 408 211L448 233Q506 266 551 326Q626 439 579 551Q534 650 443 678ZM343 475Q325 472 318 454Q313 422 301 398Q283 374 307 389Q366 430 373 459Q367 480 343 475Z" />
<glyph unicode="3" glyph-name="three" horiz-adv-x="692" d="M320 737Q418 746 509 693Q548 670 586 617Q650 513 628 398Q620 366 601 328Q599 316 615 298Q640 257 648 218Q671 101 602 -5Q544 -94 452 -114Q416 -123 373 -127Q314 -130 256 -116Q162 -95 94
-14Q37 57 28 146Q20 201 34 242Q53 290 100 306Q183 336 245 293Q268 268 266 292Q264 325 268 350Q273 374 250 352Q166 308 85 356Q47 384 40 432Q36 539 100 626Q138 675 186 700Q232 723 266 729L320 737ZM379 693Q268 704 174 640Q131 606 112 565Q83 505
81 445Q86 397 137 382Q184 366 224 387Q247 407 254 445Q258 455 263 465Q288 511 335 515Q369 520 396 504Q428 478 423 438Q419 416 395 402Q378 393 365 395L345 393Q333 394 318 372Q301 319 311 270Q315 248 332 236Q354 229 366 231Q388 231 406 217Q434
194 431 155Q428 133 407 116Q366 90 319 102Q278 112 254 166Q247 182 244 206Q228 281 155 274Q134 272 115 266Q72 248 68 209Q63 133 98 60Q147 -32 237 -64Q328 -97 434 -74Q538 -51 588 59Q627 144 599 234Q580 296 505 333Q480 341 467 356Q460 367 474
378Q496 382 529 362Q553 348 555 348Q562 349 567 358Q607 440 579 530Q555 619 459 670Q419 688 379 693ZM364 470Q309 482 295 428Q289 408 312 427Q329 437 348 438Q368 437 377 441Q382 445 380 453Q378 464 364 470ZM295 209Q283 224 288 198Q295 163 323
148Q355 135 383 153Q394 166 379 183Q373 188 359 186Q335 187 319 192Q309 197 295 209Z" />
<glyph unicode="4" glyph-name="four" horiz-adv-x="692" d="M398 729Q475 752 535 719Q593 684 602 618V223Q602 199 607 189Q629 163 635 149Q654 109 649 59Q641 6 613 -21Q601 -30 597 -40Q583 -88 537 -111Q484 -133 429 -120Q385 -111 353 -57Q346 -49 321
-52H160Q99 -45 60 -7Q31 28 23 73Q18 110 29 160Q44 235 90 320Q150 433 258 600Q293 655 318 680Q358 719 398 729ZM448 694Q371 688 318 610Q232 485 167 370Q110 272 88 210Q76 176 68 130Q50 63 104 13Q126 -3 163 -8H373Q383 -8 390 -23Q404 -73 453 -79Q485
-84 520 -72Q543 -59 552 -37Q556 -11 572 2Q596 18 602 39Q614 80 600 120Q596 136 582 150Q572 156 564 166Q556 177 558 207V616Q554 660 502 686Q474 697 448 694ZM419 456Q431 467 439 461Q452 451 447 442Q445 428 429 413Q414 393 402 373Q397 360 397 337V222Q397
192 396 190Q392 181 385 180Q379 177 350 177H223Q216 176 211 182Q200 198 215 208Q222 210 242 210Q263 210 268 212Q277 217 279 226Q345 354 419 456ZM354 250Q354 274 340 250Q329 226 330 223Q341 216 351 224Q354 227 354 250Z" />
<glyph unicode="5" glyph-name="five" horiz-adv-x="692" d="M237 707H549Q598 704 627 666Q670 600 644 531Q630 484 580 466L555 461H350Q326 461 324 460Q314 455 318 447Q334 448 353 450H418Q490 441 538 410Q583 378 606 335Q708 149 591 -11Q519 -96 427
-116Q376 -130 319 -127Q230 -123 159 -79Q115 -51 83 -9Q32 72 26 151Q20 203 43 249Q49 260 44 289Q43 326 47 356L54 436Q59 495 60 530Q67 600 110 651Q145 689 193 699L237 707ZM238 663Q187 659 154 633Q132 614 121 590Q102 548 102 510Q95 413 86 316Q86
292 87 290Q94 284 115 296Q175 316 226 294Q246 284 261 259Q269 233 271 231Q274 228 283 235Q334 264 378 248Q399 241 415 218Q427 198 426 170Q418 122 370 102Q333 87 292 110Q265 127 250 166Q239 215 233 236Q215 269 189 269Q146 280 98 249Q59 206 70
153Q70 143 73 133Q87 60 121 13Q192 -69 276 -76Q369 -90 429 -71Q525 -42 581 53Q626 142 600 243Q593 268 575 303Q535 371 467 394Q442 403 415 406H355Q301 399 240 371Q222 370 221 389Q226 399 235 405Q245 410 255 414Q273 420 272 439L276 479Q275 494
289 502Q294 504 324 504H550Q560 506 570 510Q584 512 600 537Q608 550 610 573Q613 602 601 626Q585 660 549 663H238ZM332 207Q317 208 302 194Q283 176 307 155Q334 128 367 151Q396 176 372 200Q355 215 332 207Z" />
<glyph unicode="6" glyph-name="six" horiz-adv-x="692" d="M240 718Q305 745 373 737Q456 730 533 675Q575 642 601 595Q634 537 643 475Q653 420 617 370Q600 351 618 330Q693 160 609 9Q583 -37 532 -72Q390 -159 228 -108Q186 -95 148 -61Q78 -1 50 97Q30
171 26 251V358Q34 497 91 598Q150 685 240 718ZM493 649Q335 741 194 646Q172 630 158 614Q120 571 106 534Q73 451 69 344V257Q73 178 95 97Q121 6 214 -55Q303 -95 398 -78Q445 -68 478 -53Q539 -26 581 49Q629 161 598 267Q588 302 570 327Q561 337 550 332Q532
327 512 324Q474 320 434 339Q409 353 399 383Q393 409 387 413Q380 415 356 415Q286 411 222 367Q204 361 200 383Q204 397 218 404Q236 415 254 425Q263 433 267 459Q278 490 308 512Q349 529 382 511Q399 499 407 483Q418 464 421 443L425 402Q436 362 472 360Q518
348 560 375Q585 392 593 414Q613 464 584 534Q576 554 565 574Q543 615 493 649ZM340 476Q324 472 315 458Q315 456 342 458Q370 462 365 468Q359 477 340 476ZM326 262Q404 276 442 194Q456 153 422 112Q368 58 303 86Q244 118 246 181Q257 231 304 256Q314 260
326 262ZM338 220Q316 219 297 195Q277 161 306 135Q338 110 379 132Q414 158 397 190Q375 222 338 220Z" />
<glyph unicode="7" glyph-name="seven" horiz-adv-x="692" d="M144 707H502Q569 701 615 647Q669 575 641 482Q624 425 575 362Q510 287 459 202Q405 110 412 11Q417 -27 395 -69Q381 -92 360 -105Q336 -118 320 -120Q301 -123 281 -127Q241 -131 201 -112Q152
-87 137 -43Q132 -24 128 3V55Q136 205 218 335Q237 365 266 400Q283 424 258 424H141Q41 442 33 545Q27 591 46 637Q78 701 144 707ZM147 663Q103 658 88 626Q69 581 78 535Q81 513 93 495Q115 472 148 467H299Q323 467 333 472Q350 486 359 511Q364 523 372 528Q384
534 394 518Q397 506 388 491Q372 456 332 411Q257 328 221 251Q165 126 170 5Q173 -15 180 -35Q187 -52 213 -70Q255 -91 305 -77Q338 -74 354 -52Q370 -31 370 9V63Q379 184 474 303Q504 343 537 383Q610 469 606 555Q605 602 563 638Q531 661 499 663H147Z"
/>
<glyph unicode="8" glyph-name="eight" horiz-adv-x="692" d="M309 737Q430 751 533 676Q605 614 623 518Q637 444 593 361Q586 349 585 341Q585 334 606 308Q673 202 644 90Q633 49 609 10Q548 -80 460 -108Q415 -123 366 -127Q265 -131 179 -95Q83 -50 48 41Q9
137 36 252Q51 294 80 332Q86 345 80 352Q19 481 81 601Q133 690 229 720Q263 732 309 737ZM319 693Q252 689 189 652Q168 641 149 621Q83 546 93 447Q98 404 122 367Q137 345 173 313Q194 300 189 282Q172 264 152 285Q125 308 121 307Q113 305 104 292Q81 263
71 212Q57 138 85 63Q131 -40 221 -64Q353 -103 463 -60Q570 -6 601 95Q625 190 579 272Q567 292 542 311Q508 336 468 355Q451 364 464 379Q485 394 524 368Q536 359 544 364Q550 369 552 373Q577 417 582 453Q595 555 512 636Q424 706 319 693ZM304 537Q357 554
404 522Q441 485 413 442Q373 403 322 415Q271 420 258 469Q253 516 304 537ZM372 490Q346 507 310 491Q294 485 307 466Q335 448 370 464Q390 472 372 490ZM264 250Q288 279 319 261Q371 241 399 218Q450 170 420 120Q397 92 362 86Q317 81 274 103Q249 117 243
139Q224 192 264 250ZM318 215Q303 224 291 210Q278 191 279 168Q279 156 291 144Q327 121 369 134Q381 137 386 148Q391 167 368 187Q349 201 318 215Z" />
<glyph unicode="9" glyph-name="nine" horiz-adv-x="692" d="M178 698Q276 746 387 732Q475 722 554 640Q582 609 605 560Q641 480 647 400L652 333V270Q650 145 594 30Q538 -72 448 -105Q322 -154 181 -93Q88 -49 46 53Q9 149 38 210Q47 230 65 250Q73 264 61
280Q37 334 32 400Q28 502 71 589Q100 654 178 698ZM413 681Q325 706 225 671Q177 654 137 611Q84 540 77 451Q73 404 85 344Q87 323 97 304Q114 275 138 281Q187 287 217 277Q276 258 284 208Q285 203 289 200Q292 197 316 197Q377 198 452 241Q461 244 467 239Q482
218 453 202Q443 195 433 191Q418 183 414 163Q388 80 315 92Q294 93 276 113Q263 128 256 173Q250 201 244 213Q228 244 191 249Q154 253 115 233Q74 206 68 157Q69 96 103 33Q134 -15 178 -41Q262 -86 361 -82Q436 -75 502 -21Q541 15 564 66Q605 158 608 275V331Q606
381 602 412Q591 495 549 572Q500 653 413 681ZM303 525Q396 548 430 459Q443 395 380 358Q336 339 300 352Q252 369 239 417Q234 453 243 473Q266 519 303 525ZM376 471Q325 505 286 463Q272 433 287 413Q312 384 349 393Q367 396 383 417Q398 445 376 471ZM358
143Q369 157 338 154Q307 152 305 150Q310 134 329 134Q345 131 358 143Z" />
<glyph unicode=":" glyph-name="colon" horiz-adv-x="346" d="M113 492Q149 503 180 500Q200 498 220 492Q262 478 288 436Q316 389 297 335Q266 260 190 250Q128 245 86 267Q11 322 27 394Q31 422 39 434Q68 478 113 492ZM187 455Q146 462 106 442Q54 409 67
357Q70 321 121 300Q158 286 204 299Q257 319 263 364Q274 405 227 441Q214 450 187 455ZM132 141Q199 154 260 113Q300 80 303 35Q311 -23 266 -71Q226 -102 177 -108Q151 -111 101 -97Q54 -77 34 -32Q9 40 53 98Q86 133 132 141ZM135 97Q68 82 65 20Q66 -6 74
-20Q102 -61 150 -63Q188 -71 237 -39Q278 2 259 48Q251 69 225 85Q186 104 135 97Z" />
<glyph unicode=";" glyph-name="semicolon" horiz-adv-x="346" d="M114 493Q176 508 217 491Q261 478 288 434Q320 368 281 307Q250 263 205 254Q154 239 93 262Q82 265 73 274Q8 329 27 404Q39 469 114 493ZM186 455Q143 462 103 441Q60 415 62 371Q62 326 112
302Q179 276 234 316Q270 351 260 392Q254 419 226 440Q209 451 186 455ZM106 209Q182 229 247 186Q295 149 301 103Q310 39 255 -57Q239 -89 210 -114Q168 -143 130 -112Q86 -83 86 -36Q87 -26 76 -16Q10 32 25 108Q28 130 36 148Q60 195 106 209ZM203 161Q145
180 102 160Q78 145 69 123Q61 103 62 74Q65 44 101 19Q112 12 120 26Q130 45 147 26Q152 11 137 -5Q106 -50 163 -82Q185 -88 206 -59Q229 -28 247 21Q266 64 260 103Q252 136 203 161Z" />
<glyph unicode="&lt;" glyph-name="less" horiz-adv-x="868" d="M640 716Q682 737 725 724Q772 707 795 661Q813 631 820 587Q823 496 723 459Q583 391 443 321Q419 309 420 306Q581 228 743 151Q792 131 812 88Q836 29 799 -41Q768 -103 708 -112Q664 -114 615
-87Q355 51 95 188Q49 216 37 262Q16 335 48 389Q77 436 120 454Q360 576 600 694Q620 704 640 716ZM727 675Q684 698 636 663Q396 544 156 423Q109 405 85 365Q65 324 76 281Q85 242 128 219Q368 95 608 -32Q664 -64 686 -68Q737 -72 765 -13Q771 1 776 27Q787
76 735 106L335 298Q327 302 328 309Q329 312 359 330L713 503Q764 520 776 565Q779 623 727 675Z" />
<glyph unicode="=" glyph-name="equal" horiz-adv-x="654" d="M82 584Q101 591 127 596H505Q552 590 584 554Q598 537 603 514Q618 448 602 408Q574 336 507 331H121Q78 334 43 377Q10 444 26 512Q35 557 82 584ZM127 552Q68 540 64 483Q59 451 69 423Q86 379
126 375H504Q538 377 557 414Q578 476 556 516Q534 550 500 552H127ZM122 295H506Q583 283 604 212Q623 146 590 82Q563 38 515 32Q511 32 504 30H122Q46 44 27 116Q11 180 32 230Q64 289 122 295ZM127 252Q78 245 66 192Q56 150 73 112Q92 79 127 74H502Q548 78
563 132Q575 177 556 218Q537 248 500 252H127Z" />
<glyph unicode="&gt;" glyph-name="greater" horiz-adv-x="868" d="M59 668Q122 756 215 713Q475 584 735 454Q806 419 821 349Q831 302 813 252Q798 212 750 185Q510 59 270 -68Q212 -99 190 -106Q116 -128 65 -63Q42 -30 32 17Q15 109 121 158Q264 225 409 295Q434
309 411 321L257 396Q177 435 97 472Q47 501 36 544Q18 602 59 668ZM190 675Q142 697 107 658Q72 614 74 571Q79 534 112 516L512 320Q535 311 513 297Q473 276 433 257L273 181L133 116Q36 71 96 -28Q146 -96 212 -49Q472 88 732 224Q777 251 779 298Q793 375
710 419Q450 548 190 675Z" />
<glyph unicode="?" glyph-name="question" horiz-adv-x="758" d="M180 698Q261 732 353 738H420Q507 731 580 693Q630 665 674 606Q751 479 709 345Q665 230 570 187Q545 178 520 167Q507 160 503 152Q498 134 497 118Q493 96 511 74Q545 22 520 -44Q503 -89 454
-111Q405 -131 354 -127Q311 -125 274 -111Q220 -82 205 -36Q194 7 208 48Q210 65 233 89Q241 100 235 118Q233 158 236 179Q236 184 235 187Q232 190 208 190Q174 193 133 221Q76 264 54 307Q13 384 20 463Q24 541 67 603Q107 662 180 698ZM356 694Q309 689 262
680Q165 659 103 577Q49 493 66 400Q80 309 172 251Q214 221 252 242Q271 250 289 275Q325 319 323 363Q321 389 297 394Q260 403 260 442Q261 465 283 479Q298 490 323 492Q388 501 444 476Q463 470 478 443Q486 426 481 405Q467 366 431 363Q393 357 361 334Q352
331 350 317Q337 273 294 232Q286 222 284 212Q275 169 278 126Q280 116 282 114T308 118Q385 126 427 116Q451 111 454 135Q457 150 461 165Q479 207 534 220Q590 236 631 289Q674 348 677 409Q691 498 633 588Q604 626 556 654Q495 689 416 694H356ZM404 445Q372
454 329 446Q301 440 326 430Q344 422 357 401Q363 382 383 395Q403 403 423 407Q447 415 434 431Q423 440 404 445ZM390 86Q341 91 288 74Q247 53 245 22Q231 -49 312 -77L352 -82Q402 -85 442 -68Q463 -58 478 -34Q500 13 469 53Q439 87 390 86Z" />
<glyph unicode="@" glyph-name="at" horiz-adv-x="1018" d="M250 700Q337 751 455 764H534Q619 757 694 727Q839 670 912 529Q952 440 947 335Q942 236 895 154Q880 130 881 128Q883 125 893 121Q916 111 933 92Q978 35 951 -30Q942 -52 916 -76Q856 -118 756
-150Q652 -181 549 -186H476Q351 -181 236 -115Q137 -52 88 37Q29 138 23 264V315Q32 454 101 555Q164 645 250 700ZM464 720Q372 711 301 676Q216 635 147 542Q75 441 67 326V275Q70 238 77 195Q90 110 142 35Q207 -54 298 -98Q382 -136 479 -142H551Q711 -138
873 -52Q919 -20 918 19Q917 59 874 81Q847 92 817 75Q706 9 577 -7Q493 -18 393 2Q373 7 353 15Q312 30 271 72Q182 177 200 339Q205 403 242 459Q266 497 313 535Q431 625 584 591Q685 565 736 487Q783 406 768 304Q761 263 741 224Q726 193 702 179Q683 173
679 177Q672 184 671 195Q670 220 680 291L695 411Q704 472 695 492Q653 558 601 519Q588 504 610 490Q628 473 629 460Q631 449 620 444Q610 443 598 457Q534 529 455 516Q367 506 300 414Q220 284 282 144Q303 100 348 69Q461 5 570 98Q580 106 587 115Q621 154
602 195Q579 243 531 238Q499 237 474 200Q457 180 435 180Q406 178 394 213Q380 272 409 328Q434 378 479 386Q508 396 529 382Q534 378 537 372Q547 360 542 338Q540 310 534 278Q532 271 539 266Q543 264 557 263Q625 255 634 175Q638 137 613 101Q596 77 598
75Q737 9 856 175Q898 247 902 333Q908 446 863 529Q843 573 793 616Q716 679 633 701Q585 715 528 720H464ZM552 550Q538 552 547 548Q559 545 562 546Q568 548 552 550ZM496 341Q485 348 474 339Q437 307 434 256Q438 231 460 252Q483 267 490 282Q491 298 494
314Q497 338 496 341Z" />
<glyph unicode="A" glyph-name="A" horiz-adv-x="828" d="M301 708Q376 751 452 733Q503 723 542 678Q557 661 569 638Q690 358 809 78Q840 10 804 -40Q779 -73 757 -83Q671 -127 585 -95Q564 -86 545 -65Q529 -44 514 -15Q510 -9 503 -7H317Q293 -5 285 -10Q283
-12 278 -22Q266 -57 237 -81Q162 -132 64 -91Q-9 -55 -12 15Q-10 52 6 95Q112 345 219 595Q226 615 235 635Q257 679 301 708ZM398 694Q341 689 303 656Q280 630 277 616Q149 322 37 56Q9 -12 86 -52Q137 -71 182 -60Q237 -40 243 11Q243 17 221 40Q185 95 199
169Q204 213 251 242Q278 252 303 254Q327 254 330 256Q341 262 343 271Q349 293 373 351Q382 370 380 381Q377 396 366 421Q355 449 352 461Q348 471 357 479Q374 488 382 464Q419 364 458 264Q469 251 505 255Q584 249 602 177Q619 116 595 56Q586 37 560 19Q552
11 557 -1Q579 -55 622 -60Q683 -75 743 -39Q789 -5 776 38Q769 70 746 118Q641 358 539 598Q496 699 398 694ZM405 281Q400 295 394 281Q390 268 392 266Q414 261 405 281ZM296 220Q245 212 232 164Q223 141 231 98Q237 59 277 42Q286 40 300 37H509Q555 40 572
93Q583 129 569 173Q556 212 512 220H296Z" />
<glyph unicode="B" glyph-name="B" horiz-adv-x="872" d="M151 690Q179 705 218 711H540Q635 701 700 651Q748 611 761 566Q776 530 781 486Q788 423 762 367Q754 343 769 319Q825 233 810 132Q788 -15 649 -80Q546 -117 456 -107Q390 -103 316 -87Q303 -81 288
-93Q279 -103 266 -107Q206 -134 133 -113Q87 -98 64 -57Q44 -3 48 27V547Q52 586 79 627Q108 668 151 690ZM224 666Q200 664 174 652Q130 632 105 584Q96 564 92 541V1Q100 -36 112 -49Q120 -58 132 -65Q180 -90 242 -69Q254 -66 259 -56Q259 -53 235 -36Q198
-7 198 37Q192 96 231 155Q253 182 280 188Q293 191 291 202Q291 211 278 218Q252 236 241 268Q232 296 234 332Q235 351 241 370Q251 398 279 420Q285 422 288 426Q291 432 291 459Q291 487 293 492Q296 497 301 500Q307 503 337 503H478Q515 496 527 461Q533
442 520 424Q503 402 477 398H328Q293 395 274 360Q260 326 272 280Q287 246 322 237H506Q531 234 546 224Q581 198 570 163Q552 124 495 118Q429 116 343 146Q319 157 297 155Q277 152 258 131Q213 70 241 8Q268 -25 318 -41Q467 -79 583 -54Q625 -45 663 -22Q720
12 740 57Q793 152 750 268Q741 292 717 313Q679 344 637 355Q621 358 615 369Q612 375 619 385Q626 392 638 390Q667 384 689 372Q700 363 709 368Q732 393 737 438Q746 497 719 555Q706 593 660 627Q610 660 530 666H224ZM484 452Q472 462 461 459H367Q343 459
340 458Q333 454 339 444Q342 442 366 442H441Q465 442 475 445Q485 450 484 452ZM506 193H369Q343 193 369 185Q413 170 465 163Q491 158 510 166Q529 177 529 180Q525 190 506 193Z" />
<glyph unicode="C" glyph-name="C" horiz-adv-x="882" d="M253 697Q357 745 467 737Q530 733 587 716Q694 691 787 584Q845 498 845 416Q844 399 839 386Q828 373 838 356Q880 280 847 180Q824 98 760 20Q687 -60 593 -87Q501 -114 400 -106Q313 -100 240 -63Q188
-39 160 -13Q94 41 64 114Q26 196 23 289Q18 387 56 487Q85 570 173 646Q201 671 253 697ZM511 688Q380 714 241 641Q195 615 154 568Q94 496 78 408Q48 272 100 137Q133 55 231 -8Q290 -44 351 -55Q415 -66 461 -64Q556 -60 622 -29Q660 -11 702 22Q742 57 764
102Q833 219 811 311Q799 336 780 348Q735 367 689 362Q655 360 629 334Q621 326 619 314Q614 297 610 274Q602 238 578 194Q561 171 540 160Q487 129 427 134Q380 139 347 156Q303 186 289 231Q268 289 285 376Q296 420 334 455Q352 471 374 479Q425 496 476 490Q560
486 596 391Q606 367 609 368T616 373Q622 378 635 384Q696 411 764 390Q787 383 790 386Q809 417 792 475Q769 566 671 630Q600 674 511 688ZM420 445Q374 446 343 399Q329 376 325 359Q322 341 320 321Q317 267 342 222Q350 209 362 198Q425 163 496 188Q537
201 555 242L573 312Q576 322 572 332Q564 352 557 372Q542 424 499 441Q469 450 420 445Z" />
<glyph unicode="D" glyph-name="D" horiz-adv-x="890" d="M77 623Q139 703 215 711H484Q563 704 644 664Q747 603 786 504Q822 415 824 331V268Q819 176 791 108Q757 15 660 -49Q504 -144 329 -90Q304 -82 281 -97Q219 -131 145 -116Q101 -106 69 -64Q54 -43 48
-4V543Q54 585 77 623ZM221 666Q197 664 172 651Q98 607 93 538V1Q96 -14 100 -29Q106 -47 133 -64Q184 -88 240 -69Q255 -66 257 -53Q257 -51 233 -32Q195 -2 194 38Q187 104 234 163Q257 189 273 196Q284 198 289 208Q290 210 290 234V468Q291 475 300 482Q307
484 336 484H451Q499 480 532 454Q565 426 576 372Q580 354 582 327V273Q580 234 563 193Q541 148 491 137Q442 131 402 143Q362 157 322 170Q281 176 247 123Q220 78 230 29Q236 10 261 -9Q296 -34 341 -47Q442 -75 529 -56Q580 -46 649 -4Q671 10 692 33Q753
95 772 193Q778 224 780 267V338Q774 425 742 498Q708 574 622 625Q554 661 480 666H221ZM367 440Q344 440 341 439T336 436Q334 433 334 409V246Q334 222 335 219Q340 210 351 207Q371 200 391 191Q444 173 489 182Q514 189 524 211Q547 266 535 351Q533 377 525
391Q518 412 494 428Q477 436 448 440H367Z" />
<glyph unicode="E" glyph-name="E" horiz-adv-x="868" d="M87 638Q142 702 223 711H698Q718 708 738 699Q785 677 796 629Q807 591 801 551Q788 460 699 446H359Q335 446 331 445Q324 442 331 435Q333 434 357 434H628Q672 431 705 389Q742 326 723 257Q697 184
624 174H357Q333 174 330 173Q324 167 330 164Q333 162 357 162H698Q749 156 777 122Q821 52 795 -30Q789 -48 773 -68Q746 -97 698 -105H234Q187 -100 154 -81Q110 -60 75 -7Q55 31 48 96V518Q55 589 87 638ZM230 666Q206 663 181 654Q110 626 98 551Q94 533 92
514V102L97 62Q122 -42 230 -60H699Q733 -56 752 -19Q770 13 753 75Q747 97 721 110Q708 116 694 118H328Q298 118 296 119Q290 120 285 129Q283 134 283 157T282 183Q275 189 265 190Q221 199 201 252Q185 292 198 351Q216 414 278 424Q286 432 283 453Q281 474
287 483Q299 494 329 490H697Q730 494 751 531Q767 570 755 617Q742 659 695 666H230ZM293 391L268 385Q249 377 233 351Q222 330 225 297Q228 275 234 257Q248 227 290 219H624Q665 230 676 260Q693 297 678 347Q670 370 647 384Q635 388 623 391H293Z" />
<glyph unicode="F" glyph-name="F" horiz-adv-x="852" d="M78 627Q118 698 202 711H702Q751 705 784 669Q825 605 808 533Q794 459 718 440Q709 440 699 437H371Q347 437 344 436Q337 431 343 421Q346 418 370 418H629Q679 411 707 375Q735 332 732 275Q725 182
630 158H371Q347 158 344 157Q337 149 339 125V-8Q338 -28 328 -48Q304 -99 260 -111Q178 -137 117 -106Q74 -83 60 -35Q56 -20 53 -2V547Q58 588 78 627ZM210 666Q134 659 103 577Q99 563 97 550V-5Q101 -41 131 -63Q174 -87 219 -77Q282 -71 296 0V142Q296 166
295 168Q290 176 278 181Q257 192 241 215Q212 273 231 342Q247 386 290 404Q294 409 296 412V440Q296 465 299 471Q312 485 342 480H700Q745 483 764 538Q776 580 762 620Q742 659 717 662L697 666H210ZM324 374Q312 372 300 369Q283 363 267 339Q246 300 262
248Q278 208 322 202H625Q660 207 680 241Q693 277 686 317Q683 337 664 357Q648 372 628 374H324Z" />
<glyph unicode="G" glyph-name="G" horiz-adv-x="918" d="M404 737H467Q549 732 627 703Q743 661 811 551Q866 452 837 375Q835 362 846 345Q856 322 860 305Q867 282 863 234Q857 154 812 74Q752 -21 661 -64Q582 -103 487 -108H405Q278 -101 165 -18Q122 16
94 58Q15 184 23 334Q30 439 78 534Q110 593 186 658Q289 730 404 737ZM410 694Q341 688 277 659Q183 614 125 526Q44 370 77 216Q84 172 101 136Q142 45 231 -7Q340 -71 466 -64Q555 -63 628 -31Q727 12 781 109Q823 189 820 277Q817 299 810 317Q805 328 798
327Q791 327 774 312Q709 274 640 283Q608 290 586 329Q575 349 567 369Q564 380 558 384Q556 385 532 385H458L438 380Q424 377 409 358Q399 346 396 318Q391 266 423 239Q437 231 463 226H560Q590 226 600 222Q616 211 609 193Q601 170 579 156Q558 143 539 141Q429
121 359 153Q340 162 320 186Q289 226 285 266Q273 358 311 436Q362 506 431 508Q482 513 524 492Q567 468 586 420Q601 375 622 340Q642 310 679 315Q722 321 759 344Q782 358 791 380Q811 419 797 472Q775 561 674 630Q567 697 410 694ZM516 445Q462 477 403
457Q376 448 352 419Q312 331 334 245Q345 215 382 191Q435 171 500 179Q524 183 502 183H455Q429 187 415 193Q393 201 376 223Q337 281 361 357Q381 408 424 424Q452 433 502 430Q529 430 516 445Z" />
<glyph unicode="H" glyph-name="H" horiz-adv-x="854" d="M135 730Q188 747 244 732Q290 719 319 675Q334 652 337 617V491Q337 467 338 465Q346 456 370 459H472Q496 459 498 460Q505 468 502 492V620Q504 663 546 705Q577 731 626 737Q677 741 716 725Q783 695
791 618V-4Q787 -63 736 -100Q661 -142 584 -114Q539 -100 515 -51Q505 -31 502 -2V155Q502 179 501 181Q495 190 470 187H370Q346 187 342 185Q335 177 337 153V-3Q334 -23 328 -43Q321 -66 295 -90Q218 -149 121 -110Q89 -95 66 -60Q51 -31 48 -5V623Q58 698
135 730ZM240 687Q182 706 129 678Q96 656 92 619V1Q97 -23 104 -39Q117 -60 141 -71Q150 -76 180 -80Q239 -85 277 -45Q290 -27 294 1V165Q294 189 292 193Q288 201 278 200Q260 202 238 214Q195 248 192 292Q182 356 210 408Q233 438 267 446Q287 446 293 454Q294
456 294 480V618Q292 662 240 687ZM660 694Q596 695 566 664Q549 644 546 620V480Q546 456 548 453Q551 447 565 447Q608 445 635 393Q662 337 638 260Q616 212 569 202Q553 201 547 193Q546 189 546 165V-4Q555 -67 619 -78Q664 -85 700 -69Q746 -47 748 -1V612Q747
632 736 652Q711 691 660 694ZM292 416Q261 414 236 382Q206 319 238 262Q251 244 272 236L293 231H545L565 236Q585 241 603 266Q617 287 615 306Q620 336 610 367Q605 384 588 398T544 416H292Z" />
<glyph unicode="I" glyph-name="I" horiz-adv-x="412" d="M164 741Q238 757 298 712Q332 683 338 633L340 620V-2Q337 -22 332 -42Q306 -112 236 -127Q182 -140 119 -110Q70 -74 63 -6V620Q66 660 95 700Q123 731 164 741ZM187 701Q165 699 141 683Q109 663 103
612V-1Q107 -45 146 -73Q182 -93 228 -84Q296 -64 300 1V616Q298 638 288 656Q250 709 187 701Z" />
<glyph unicode="J" glyph-name="J" horiz-adv-x="776" d="M488 724Q540 752 608 738Q676 728 709 651Q711 634 715 615V206Q710 122 673 46Q640 -18 566 -62Q493 -102 400 -108H322Q232 -102 162 -66Q67 -14 26 77Q-21 230 38 371Q59 416 106 440Q128 449 146
451Q216 461 278 411Q340 348 315 286Q302 246 298 226Q292 199 326 182Q343 175 376 180Q400 186 412 210L418 234V618Q420 636 426 658Q440 699 488 724ZM553 699Q513 694 489 674T461 613V228Q451 152 376 136Q329 126 283 159Q244 196 257 238Q265 271 274
298Q295 364 208 400Q155 417 114 394Q99 385 81 363Q33 245 55 134Q63 83 105 33Q150 -12 190 -32Q263 -62 329 -64H393Q462 -58 513 -38Q610 -2 648 97Q666 146 671 202V614Q668 640 659 654Q627 704 553 699Z" />
<glyph unicode="K" glyph-name="K" horiz-adv-x="806" d="M160 735Q208 742 252 727Q295 714 320 664Q327 651 332 615V541Q332 516 357 531Q453 603 551 674Q608 726 671 723Q718 713 753 674Q823 594 785 515Q773 494 753 476Q653 401 553 325Q535 310 546 295Q568
246 590 215Q606 195 626 185Q651 171 686 167Q784 158 806 54Q818 -5 769 -70Q737 -110 691 -119Q590 -132 489 -74Q387 -11 347 68Q332 96 332 70V-2Q329 -24 323 -42Q309 -85 258 -108Q204 -134 126 -111Q84 -98 59 -47Q51 -28 48 -8V616Q51 638 57 656Q75 703
121 724Q140 730 160 735ZM232 685Q176 701 134 680Q122 675 112 665Q93 644 92 610V0Q97 -30 103 -40Q127 -74 178 -78Q231 -83 267 -50Q285 -30 288 -2V150Q288 180 290 188Q294 195 306 198Q328 201 344 171Q368 113 411 51Q511 -70 647 -77Q679 -83 705 -69Q724
-59 741 -33Q781 28 748 87Q729 115 690 122Q651 124 610 143Q542 182 517 254Q506 281 497 294Q476 322 462 332Q413 357 353 339Q341 333 331 336Q310 354 338 368Q406 395 478 362Q499 347 503 347Q514 347 528 361L688 481Q793 545 734 627Q680 704 618 667Q538
610 458 550Q398 506 338 461Q312 441 301 437Q291 433 288 447V618Q277 670 232 685Z" />
<glyph unicode="L" glyph-name="L" horiz-adv-x="778" d="M119 725Q178 753 246 734Q334 706 340 619V213Q337 189 346 182Q350 181 373 181H632Q652 178 672 172Q723 149 737 105Q767 24 722 -55Q691 -98 633 -105H187Q167 -102 147 -95Q100 -80 70 -26Q53 6
48 48V618Q52 638 57 658Q69 699 119 725ZM183 696Q104 694 92 613V53Q96 13 120 -24Q147 -54 187 -60H633Q670 -56 690 -24Q725 49 686 110Q669 130 644 134L625 138H314Q304 140 299 150Q297 154 297 183V617Q297 664 239 690Q213 698 183 696Z" />
<glyph unicode="M" glyph-name="M" horiz-adv-x="1010" d="M196 735Q259 748 333 709Q384 676 404 632Q420 592 434 552L490 396Q500 372 511 396Q564 514 614 632Q625 658 639 672Q670 709 718 728Q803 755 878 709Q926 677 937 634Q943 622 948 591V-2Q943 -69
869 -108Q837 -121 794 -118Q750 -114 714 -90Q671 -52 667 -6V30Q667 56 656 29Q647 11 641 -6Q626 -45 582 -78Q538 -110 486 -107Q437 -105 386 -59Q357 -30 347 7Q336 32 335 7Q332 -35 312 -65Q287 -99 255 -109Q207 -127 155 -116Q119 -112 85 -82Q73 -71
69 -63Q53 -31 50 -3V579Q54 622 79 659Q130 723 196 735ZM223 694Q144 687 103 609Q97 596 94 575V0Q96 -21 109 -40Q123 -60 148 -68Q200 -86 250 -63Q274 -48 284 -26Q288 -13 290 1V165Q285 188 259 245Q230 315 203 385Q196 400 198 407Q202 420 211 420Q225
422 235 398Q307 215 399 -2Q429 -52 489 -63Q538 -67 579 -22Q595 -6 603 18Q636 98 670 178Q675 188 677 199V383Q674 412 683 425Q692 433 701 428Q711 423 711 414V-3Q718 -42 748 -60Q822 -89 873 -56Q901 -31 904 0V591Q897 640 853 673Q792 712 719 679Q682
664 656 617Q594 477 534 337Q513 303 525 277L563 177Q579 147 560 135Q539 128 533 156Q416 463 370 596Q358 638 311 671Q270 697 223 694Z" />
<glyph unicode="N" glyph-name="N" horiz-adv-x="860" d="M161 734Q272 756 353 657Q367 641 381 617Q432 535 487 451Q504 426 504 450V617Q508 661 539 697Q598 745 670 736Q776 727 792 618V27Q787 -41 725 -90Q680 -120 629 -123Q560 -124 515 -92Q466 -56
444 -13Q400 60 354 134Q338 159 337 135V129V-5Q330 -78 260 -111Q209 -133 159 -121Q109 -111 77 -78Q54 -46 48 -2V596Q55 641 75 676Q114 725 161 734ZM223 692Q164 705 117 659Q97 633 92 593V2Q97 -25 104 -38Q119 -63 140 -70Q162 -78 181 -80Q213 -83 239
-72Q259 -66 276 -46Q289 -30 294 1V222Q294 246 291 256Q286 266 279 276Q240 336 203 396Q193 415 204 422Q215 430 227 414Q344 237 479 14Q525 -63 587 -75Q635 -87 681 -63Q745 -27 749 29V612Q747 632 737 652Q725 674 701 684Q659 698 618 691Q555 673 548
619V369Q548 345 552 335L623 215Q632 203 634 190Q635 184 628 178Q609 169 591 204Q482 381 337 604Q287 681 223 692Z" />
<glyph unicode="O" glyph-name="O" horiz-adv-x="906" d="M404 727Q457 748 546 730Q642 711 706 665Q767 619 807 553Q857 470 863 356V292Q856 200 827 132Q789 40 699 -31Q627 -77 539 -96Q405 -130 261 -71Q152 -28 79 88Q30 183 24 291V341Q27 471 106 581Q138
625 189 664Q290 733 382 718Q393 718 404 727ZM449 694Q420 690 398 668Q382 653 378 628Q364 568 387 527Q406 505 426 500Q440 496 466 493Q534 485 570 447Q602 405 608 367Q616 333 609 268Q600 198 526 162Q459 133 385 152Q341 163 310 209Q259 295 297
390Q316 433 347 463Q370 483 370 486Q368 492 359 503Q323 571 348 649Q355 673 352 675Q349 676 339 677Q236 670 143 558Q86 478 74 398Q52 273 100 145Q137 52 229 -5Q420 -114 626 -22Q700 13 748 80Q800 153 813 240Q836 384 782 509Q730 606 647 651Q555
695 449 694ZM426 454Q416 460 394 444Q332 393 325 328Q320 275 350 229Q364 207 387 199Q457 175 518 208Q561 235 565 272Q573 332 563 362Q554 407 516 434Q501 442 476 447L426 454Z" />
<glyph unicode="P" glyph-name="P" horiz-adv-x="852" d="M161 696Q185 706 217 711H544Q629 705 704 652Q748 619 772 577Q816 487 811 390Q806 307 760 230Q718 164 662 134Q512 57 352 100Q339 105 335 100Q334 98 334 74V-7Q325 -80 255 -112Q210 -124 167
-121Q119 -115 88 -88Q76 -77 69 -67Q55 -44 48 -4V547Q52 586 79 627Q114 674 161 696ZM224 666Q167 659 128 618Q96 581 92 541V0Q97 -35 112 -50Q128 -66 152 -72Q203 -85 243 -68Q289 -43 291 0V99Q294 123 286 133Q280 140 266 146Q217 176 208 219T216 312Q227
353 274 385Q284 387 290 397Q291 400 291 424V472Q291 479 302 486Q308 488 337 488H500Q548 483 564 432Q569 415 568 389Q564 358 527 334Q455 301 362 350Q302 382 258 321Q232 282 237 241Q241 198 293 171Q365 134 442 130H495Q577 135 655 183Q702 217 726
257Q797 389 749 517Q734 575 673 620Q610 661 541 666H224ZM340 442Q333 438 334 423Q329 405 352 401Q373 395 392 384Q431 364 477 366Q501 368 517 382Q529 393 524 412Q521 431 507 440Q495 444 472 444H368Q344 444 340 442Z" />
<glyph unicode="Q" glyph-name="Q" horiz-adv-x="902" d="M402 737Q546 748 669 680Q738 641 786 567Q834 485 849 407Q879 273 821 126Q814 112 829 96Q881 35 845 -35Q809 -112 749 -129Q683 -141 613 -103Q598 -92 583 -94Q528 -105 481 -108H396Q300 -103
236 -70Q141 -24 85 64Q14 189 19 332Q25 462 93 572Q119 615 167 654Q239 708 327 727Q358 733 402 737ZM471 694Q392 699 312 678Q226 657 150 574Q120 537 101 494Q55 384 63 284Q67 208 102 124Q140 34 247 -26Q312 -59 400 -64H478Q518 -61 550 -55Q552 -53
527 -29Q516 -19 514 -4Q513 2 522 9Q531 13 544 5Q636 -86 724 -88Q764 -83 798 -33Q827 13 808 53Q794 74 770 83Q750 90 730 95Q712 101 690 116Q664 133 679 148Q693 157 706 147Q739 126 767 125Q777 130 781 142Q818 235 814 338Q810 418 773 498Q755 541
725 578Q676 629 631 652Q567 686 471 694ZM376 486Q415 497 460 492Q508 490 540 465Q583 433 595 388Q609 336 604 290Q601 249 579 213Q566 202 545 220Q525 234 505 246Q404 295 333 245Q262 184 272 120Q281 74 330 51L356 44Q413 40 448 89Q460 115 479 102Q492
91 476 68Q417 -5 341 10Q263 29 242 96Q222 174 272 239Q279 247 278 259Q269 291 273 347Q276 389 299 427Q330 471 376 486ZM406 448Q401 450 380 440Q336 419 322 373Q310 336 318 294Q324 288 335 297Q426 339 528 284Q552 271 554 273Q558 276 559 285Q567
332 550 383Q541 407 520 425Q471 460 406 448Z" />
<glyph unicode="R" glyph-name="R" horiz-adv-x="876" d="M151 690Q179 705 218 711H533Q570 708 613 695Q710 665 765 568Q819 442 773 319Q744 243 667 199Q643 187 643 185Q658 168 704 159Q731 156 764 139Q786 124 796 102Q826 45 805 -30Q794 -73 747 -105Q701
-127 677 -123Q584 -113 517 -73Q406 -8 366 109Q362 118 357 127Q335 149 335 123V-6Q329 -49 303 -79Q284 -101 260 -110Q156 -145 83 -83Q57 -58 48 -4V547Q52 586 79 627Q108 668 151 690ZM224 666Q200 664 174 652Q130 632 105 584Q96 564 92 541V1Q100 -36
112 -49Q119 -58 132 -64Q182 -85 226 -74Q288 -55 292 1V134Q292 158 291 161Q288 167 275 171Q221 191 214 239Q200 304 216 355Q236 400 275 407Q286 405 291 415Q292 419 292 443V475Q294 485 304 490Q308 491 338 491H502Q524 488 542 467Q573 421 529 387Q517
379 502 377H301L281 372Q258 364 249 339Q231 281 253 231Q268 205 289 203Q309 199 329 197Q363 193 387 161Q398 146 408 121Q432 39 529 -28Q593 -67 669 -78Q703 -84 738 -57Q775 -15 769 49Q762 100 713 112Q685 117 673 121Q604 142 572 198Q563 218 552
238Q534 270 500 281Q472 288 468 303Q466 310 475 317Q480 321 513 314Q558 297 585 244Q597 221 622 228Q677 246 713 298Q764 384 748 471Q740 520 723 551Q663 646 569 661Q549 664 527 666H224ZM506 442Q495 447 478 447H367Q343 447 340 446Q335 442 335
434T343 422Q345 421 369 421H474Q498 421 503 423Q517 429 506 442Z" />
<glyph unicode="S" glyph-name="S" horiz-adv-x="864" d="M365 737H443L483 734Q579 731 683 659Q767 594 786 501Q798 443 785 412Q782 398 768 382Q744 359 744 356Q748 346 768 329Q810 276 817 209Q830 117 766 25Q733 -19 691 -42Q595 -101 487 -108H414Q327
-102 254 -78Q217 -66 174 -41Q129 -14 96 31Q49 101 46 189Q42 237 65 287Q78 311 100 326Q113 336 102 349Q45 443 76 538Q98 610 166 663Q251 724 326 732Q345 735 365 737ZM438 694Q363 698 287 678Q138 624 113 500Q98 436 145 366Q163 342 180 344Q239 349
286 325Q323 300 323 268Q329 256 341 256Q417 237 501 227Q537 224 560 199Q581 160 538 133Q472 106 379 128Q346 136 319 155Q288 193 292 238Q295 248 291 258Q286 278 275 288Q224 322 163 305Q129 301 105 269Q87 240 92 169Q96 128 111 89Q131 45 181 9Q288
-58 410 -64H483Q566 -58 643 -19Q797 68 771 220Q762 268 735 300Q716 322 696 334Q679 347 666 344Q619 331 569 353Q559 358 541 374Q529 392 505 396Q450 407 395 415Q370 418 355 429Q337 443 336 458Q332 489 365 508Q447 546 522 487Q542 466 555 427Q557
410 568 397Q580 382 607 375Q651 367 703 389Q743 406 747 439Q753 496 712 565Q679 613 639 635Q560 687 479 691L438 694ZM480 464Q446 485 400 474L394 473Q390 471 387 468Q382 464 405 459L474 448Q498 444 496 448Q493 455 480 464ZM496 183Q428 192 364
205Q340 208 341 201Q344 195 348 189Q355 180 372 176Q436 155 496 166Q522 174 496 183Z" />
<glyph unicode="T" glyph-name="T" horiz-adv-x="822" d="M58 685Q74 701 123 711H676Q721 706 756 676Q788 636 792 596Q801 552 782 502Q754 433 681 424H582Q558 427 550 419Q548 416 548 392V-7Q543 -78 471 -113Q431 -129 391 -126Q346 -123 311 -104Q293
-94 275 -69Q258 -39 254 -4V391Q257 415 249 423Q247 424 222 424H123Q107 425 83 436Q62 444 43 464Q2 521 13 600Q20 651 58 685ZM129 666Q60 656 55 589Q50 553 63 515Q85 470 130 467H234Q258 467 262 470Q268 479 271 496Q293 547 337 561Q381 578 434 568Q488
562 520 518Q533 501 534 478Q536 474 539 470Q543 467 567 467H673Q723 474 742 520Q765 584 727 640Q703 664 673 666H129ZM416 539Q369 542 336 523Q312 507 305 486Q300 471 297 453V0Q306 -54 346 -73Q366 -80 386 -82Q428 -90 464 -68Q490 -52 498 -30Q504
-17 505 -1V458Q503 503 455 529Q437 537 416 539Z" />
<glyph unicode="U" glyph-name="U" horiz-adv-x="862" d="M124 725Q174 749 232 738Q276 733 312 701Q331 681 338 661Q346 637 349 617V211Q353 184 371 176Q439 155 490 183Q495 187 498 202L500 215V617Q505 661 533 697Q583 741 656 739Q705 737 736 717Q790
679 794 617V165Q789 100 762 45Q754 24 737 5Q698 -40 654 -61Q559 -103 465 -108H389Q313 -105 229 -76Q109 -33 66 85Q58 119 53 167V615Q56 635 61 655Q72 697 124 725ZM214 696Q170 700 135 681Q114 667 105 646L97 612V168L102 128Q112 34 214 -22Q272 -52
374 -62Q471 -71 567 -46Q638 -29 682 12Q708 37 719 57Q747 108 750 168V613Q746 661 701 685Q662 700 618 692Q560 687 544 618V216Q543 197 535 176Q530 153 505 140Q446 113 371 128Q323 139 309 189Q306 198 305 207V616Q304 636 293 656Q263 693 214 696Z"
/>
<glyph unicode="V" glyph-name="V" horiz-adv-x="778" d="M114 737Q235 744 287 649Q309 592 349 449Q361 409 374 368Q383 344 390 368L431 519Q452 603 468 639Q491 686 535 715Q570 735 612 738Q664 742 712 714Q787 662 759 579Q666 299 574 19Q554 -53 483
-100Q397 -141 305 -109Q250 -91 205 -32Q182 19 148 128L2 568Q-8 611 -6 638Q5 707 84 732Q98 735 114 737ZM122 694Q91 692 67 675Q24 642 39 597Q131 317 225 37Q241 -32 313 -66Q370 -89 440 -69Q479 -58 514 -10Q527 10 532 30Q627 320 723 612Q729 658 671
684Q610 708 551 672Q506 641 497 592Q452 435 405 252Q401 240 404 232Q417 187 432 142Q445 117 419 109Q412 108 406 117Q399 135 394 153Q327 373 261 593Q245 648 213 671Q171 697 122 694Z" />
<glyph unicode="W" glyph-name="W" horiz-adv-x="972" d="M74 719Q115 741 162 737Q203 734 242 707Q276 678 287 634L299 536Q303 512 307 533Q316 600 339 647Q365 694 409 712Q492 746 575 694Q602 673 614 652Q637 618 645 555Q651 529 654 555Q659 593 665
631Q700 751 818 738Q876 733 918 693Q967 641 953 580Q903 300 851 20Q832 -77 728 -113Q677 -129 624 -119Q525 -100 491 3Q484 26 474 89Q469 113 463 89L446 13Q435 -21 401 -64Q364 -105 315 -117Q255 -133 195 -107Q153 -89 125 -42Q102 -4 95 38L9 518Q-3
573 -1 612Q7 681 74 719ZM162 693Q131 697 94 680Q52 656 43 617Q41 586 45 566Q89 326 132 86Q142 9 173 -34Q187 -53 208 -64Q255 -84 294 -77Q335 -70 373 -28Q400 3 405 32L448 222Q449 231 445 242Q427 322 411 402Q404 424 428 428Q440 429 447 410Q459
370 472 330Q480 309 489 250Q510 123 535 10Q548 -37 601 -65Q675 -94 736 -63Q788 -37 801 5Q807 25 810 45Q857 305 907 565Q916 595 908 628Q884 678 839 688Q796 702 755 685Q736 677 719 651Q711 635 707 611Q689 491 674 370Q687 291 703 211Q711 188 709
171Q708 161 695 159Q685 157 678 175Q666 215 655 255Q625 415 597 575Q594 592 584 615Q560 666 514 677Q474 688 434 673Q387 655 370 608Q361 586 350 528Q333 448 318 368Q315 355 321 328L338 208Q339 198 342 188Q346 171 335 161Q321 151 311 172Q286 252
281 327Q263 467 246 607Q240 681 162 693Z" />
<glyph unicode="X" glyph-name="X" horiz-adv-x="784" d="M55 672Q161 805 275 692Q320 637 367 582Q391 556 395 558Q400 560 403 563L509 683Q601 794 709 699Q794 620 753 544Q737 512 692 465Q639 405 588 345Q574 329 596 305L731 146Q820 49 720 -54Q609
-156 512 -40L395 100Q385 113 368 91Q316 31 265 -29Q183 -137 88 -83Q-40 1 15 112Q38 145 79 192Q132 252 182 312Q199 327 192 342Q128 424 61 502Q28 542 24 579Q21 626 55 672ZM254 649Q191 732 122 677Q24 601 104 519Q165 444 228 369Q236 359 248 362Q282
379 326 365Q378 346 421 288Q460 222 416 162Q409 149 424 132Q489 55 554 -23Q597 -69 644 -52Q689 -33 718 15Q741 57 713 98Q697 121 647 178Q596 238 547 298Q539 306 530 307Q478 289 427 321Q306 405 363 499Q369 512 353 529Q303 587 254 649ZM617 698Q578
701 540 653Q468 573 400 493Q349 420 433 357Q471 325 512 340Q530 345 552 370Q601 430 692 530Q765 609 657 683Q637 695 617 698ZM289 336Q258 333 221 290L83 130Q40 83 41 50Q50 -18 127 -52Q185 -71 242 10Q311 90 378 170Q429 238 376 289Q328 341 289
336Z" />
<glyph unicode="Y" glyph-name="Y" horiz-adv-x="782" d="M42 689Q124 763 197 734Q237 715 267 665Q319 585 372 505Q374 498 381 494Q383 494 401 517Q464 608 534 702Q609 781 708 711Q739 689 757 655Q784 589 752 539L526 209Q520 199 517 188V-5Q514 -24
507 -45Q482 -103 421 -119Q353 -135 293 -109Q273 -101 253 -74Q231 -42 226 -1V189Q226 213 221 223Q192 259 184 273L28 513Q-34 609 42 689ZM165 698Q120 704 67 653Q32 614 48 571Q57 544 94 491Q159 391 225 291Q253 242 298 239Q368 246 406 316Q419 357
392 395L235 635Q211 684 165 698ZM679 677Q611 725 563 669Q492 569 422 469Q410 455 408 444Q407 432 419 419Q485 330 400 248Q350 204 296 202Q274 203 271 200L270 175V-2Q279 -64 343 -78Q393 -90 438 -63Q467 -42 473 -2V200Q477 221 494 240Q590 380 687
520Q720 560 726 598Q730 642 679 677Z" />
<glyph unicode="Z" glyph-name="Z" horiz-adv-x="732" d="M33 654Q67 706 120 711H593Q632 709 672 665Q721 592 689 505Q678 470 636 425Q529 314 426 204Q405 179 431 179H601Q621 176 641 170Q692 146 706 99Q718 56 713 16Q709 -56 638 -92Q625 -98 608 -100H130Q74
-93 37 -46Q-7 17 2 94Q5 158 70 217Q155 311 244 405Q264 430 240 430H130L90 439Q71 444 46 471Q19 505 12 553Q7 603 33 654ZM126 666Q110 663 100 659Q74 646 67 625Q51 581 59 538Q68 490 119 477L130 475H289Q313 475 323 480Q331 486 341 496Q366 527 393
556Q409 570 421 557Q429 542 400 515Q247 343 73 155Q33 106 47 38Q50 15 59 -2Q90 -52 132 -57H599Q649 -52 666 1Q673 24 669 61Q667 86 657 101Q646 120 630 126Q616 131 595 136H383Q359 136 349 131Q329 117 304 84Q292 65 275 66Q265 67 261 82Q260 90 271
102Q421 262 574 423Q627 474 644 508Q675 571 642 628Q623 661 588 666H126Z" />
<glyph unicode="[" glyph-name="bracketleft" horiz-adv-x="418" d="M102 728Q129 744 161 746H319Q366 741 395 692Q417 643 410 600Q402 547 370 521Q333 498 298 501Q273 503 270 500Q268 496 268 472V144Q268 120 270 117Q275 111 287 111Q331 108 367 82Q389
62 395 42Q422 -25 394 -78Q383 -101 365 -117Q349 -131 313 -136H145Q118 -132 95 -118Q51 -86 45 -36L40 -3V612Q42 655 66 692Q78 711 102 728ZM169 702Q136 701 118 687Q83 656 81 611V0Q83 -23 87 -40Q106 -89 150 -93H299L334 -86Q354 -73 362 -53Q374 -23
357 27Q352 40 331 53Q269 81 198 60Q186 54 182 69Q185 89 215 92Q221 92 226 100V126V529Q227 538 237 544Q240 545 270 545H319Q365 559 367 601Q375 642 356 674Q341 699 315 702H169Z" />
<glyph unicode="\" glyph-name="backslash" horiz-adv-x="356" d="M94 759Q138 768 159 757Q183 743 197 724Q216 693 225 644Q293 324 362 4Q372 -49 322 -99Q278 -126 242 -125Q196 -124 167 -80Q153 -56 141 0Q80 280 20 560Q10 594 4 638Q0 684 33 726Q51
746 74 753L94 759ZM111 717Q44 708 43 644Q112 324 182 4L191 -36Q209 -95 269 -76Q329 -59 322 -1L288 159Q235 399 183 639Q180 664 168 693Q147 727 111 717Z" />
<glyph unicode="]" glyph-name="bracketright" horiz-adv-x="418" d="M6 687Q31 737 78 746H229Q299 741 335 670Q345 645 349 606V6Q346 -14 344 -34Q338 -76 307 -108Q278 -131 241 -136H92Q41 -133 15 -94Q-15 -35 6 37Q29 109 117 112Q131 118 126 144V469Q129
493 122 501Q120 502 96 501Q23 501 1 574Q-8 647 6 687ZM108 702Q65 708 43 668Q30 632 42 582Q53 548 82 545Q118 546 155 544Q158 543 162 539Q166 531 166 501V126L167 100Q171 92 184 90Q197 85 203 77Q208 69 201 60Q190 58 178 62Q113 76 71 56Q41 38 37
-5Q35 -42 45 -63Q57 -84 71 -87Q85 -91 99 -93H238Q282 -89 300 -38Q305 -15 308 9V615Q305 638 297 655Q272 699 227 702H108Z" />
<glyph unicode="^" glyph-name="asciicircum" horiz-adv-x="584" d="M240 729Q312 762 373 690L547 450Q582 403 551 337Q542 318 517 299Q471 272 434 287Q412 296 394 314Q361 352 288 451Q286 455 279 452Q271 448 260 431Q230 391 202 351Q135 269 69 297Q18
324 9 360Q-15 422 33 476Q96 560 202 696Q213 713 240 729ZM270 692Q256 691 236 670L66 450Q31 411 48 371Q69 336 103 335Q130 334 161 371L252 491Q264 509 241 531Q220 555 219 571Q220 579 230 582Q246 585 265 556L413 356Q458 303 503 346Q539 386 511
427Q422 548 334 668Q303 704 270 692Z" />
<glyph unicode="_" glyph-name="underscore" horiz-adv-x="564" d="M43 81Q60 87 83 91H456Q497 90 535 48Q557 15 560 -28Q565 -77 540 -123Q510 -168 465 -172L458 -174H79Q33 -167 2 -126Q-15 -93 -16 -41Q-18 -2 0 38Q21 72 43 81ZM79 47Q52 44 34 12Q16 -32
28 -78Q30 -102 63 -123Q75 -128 84 -130H456Q480 -126 496 -109Q525 -72 517 -14Q510 35 455 47H79Z" />
<glyph unicode="`" glyph-name="grave" horiz-adv-x="378" d="M102 727Q151 760 206 701Q232 671 228 642Q225 629 234 623Q325 551 279 467Q267 443 243 426Q216 407 183 400Q169 397 128 398Q97 399 96 403Q93 407 83 413Q30 440 17 486Q1 540 27 611Q44 652
67 691Q77 710 102 727ZM163 684Q128 710 98 661Q71 619 60 581Q45 537 54 502Q68 461 124 444Q146 445 157 442Q174 442 197 450Q242 466 253 513Q253 576 182 597L162 601Q148 604 152 621Q156 641 180 635Q188 639 187 646Q191 663 163 684Z" />
<glyph unicode="a" glyph-name="a" horiz-adv-x="690" d="M279 526Q374 538 470 506Q521 488 550 465Q576 444 589 423Q627 355 622 275Q619 256 618 233V140Q623 74 636 20Q649 -14 625 -55Q583 -110 508 -123Q467 -129 426 -101Q414 -94 401 -97Q281 -145 144
-105Q97 -88 54 -42Q27 -14 12 38Q-13 137 40 230Q46 235 40 250Q-6 330 59 415Q87 450 119 471Q192 517 279 526ZM359 484Q262 490 172 450Q104 422 71 349Q51 308 81 269Q108 237 163 238Q196 242 221 273Q250 318 295 327Q346 337 386 323Q407 316 416 297Q427
277 413 275Q408 275 403 277Q351 303 284 286Q264 281 247 256Q239 236 214 220Q160 190 102 212Q82 222 68 192Q50 154 47 116Q44 62 67 16Q95 -34 136 -52Q246 -99 360 -66Q407 -52 440 -25Q481 13 463 55Q442 110 395 104Q373 101 355 91Q308 64 262 72Q219
80 218 120Q222 144 246 155Q327 182 387 150Q393 143 407 139Q448 141 482 90Q514 35 492 -14Q485 -33 460 -52Q444 -67 468 -75Q507 -86 549 -63Q590 -44 596 -11Q597 6 590 30Q580 77 575 136V227Q587 314 572 354Q555 408 519 433Q439 479 359 484ZM311 118Q319
121 295 122Q270 116 286 114Q303 116 311 118Z" />
<glyph unicode="b" glyph-name="b" horiz-adv-x="696" d="M123 738Q185 754 236 731Q281 708 293 660L298 636V554Q298 530 300 527Q303 524 327 527Q423 544 527 495Q596 454 628 388Q663 314 667 228Q677 133 634 32Q607 -24 552 -60Q423 -138 280 -93Q266 -86
250 -98Q210 -123 158 -121Q56 -114 42 -13V639Q54 719 123 738ZM158 700Q96 698 84 631V-9Q87 -57 139 -73Q161 -82 197 -75Q221 -66 222 -63Q224 -57 209 -49Q195 -39 180 -22Q150 15 158 61Q163 99 195 141Q213 167 241 176Q251 182 251 195Q254 243 282 275Q319
311 369 306Q415 305 438 252Q456 208 446 168Q436 124 396 110Q354 98 309 135Q289 150 269 147Q230 143 201 88Q158 -1 280 -46Q404 -89 514 -31Q563 -4 586 36Q649 163 612 305Q603 346 581 385Q545 436 502 458Q442 488 354 487Q292 485 234 439Q218 424 204
431Q194 439 200 451Q210 467 247 488Q254 492 256 501V630Q255 640 251 650Q249 668 223 688Q210 696 180 700H158ZM367 262Q328 266 303 231Q292 208 296 192Q299 188 306 185Q329 174 346 163Q391 135 402 176Q413 208 398 239Q389 261 367 262Z" />
<glyph unicode="c" glyph-name="c" horiz-adv-x="670" d="M194 503Q350 563 510 486Q622 415 640 317Q646 283 637 253Q632 240 632 233Q631 226 637 213Q663 122 617 36Q567 -64 475 -96Q377 -134 280 -121Q235 -115 200 -99Q70 -47 28 91Q-10 231 47 363Q69
408 114 450Q152 485 194 503ZM361 483Q230 494 142 418Q99 377 81 332Q51 255 56 178Q60 91 112 18Q149 -27 192 -48Q309 -106 461 -55Q500 -43 541 0Q607 75 604 166Q601 191 591 206Q577 231 555 237Q506 254 466 227Q448 214 440 188Q437 167 428 148Q409 109
378 98Q314 76 261 119Q224 161 227 208Q230 228 234 248Q243 294 296 317Q366 344 421 280Q438 256 463 267Q500 287 563 271Q587 259 592 262Q596 266 599 291Q599 325 572 369Q531 430 481 450Q423 478 361 483ZM362 274Q320 292 285 255Q270 234 271 198Q272
175 286 156Q297 140 317 137Q373 125 394 178Q396 193 400 208Q407 220 397 238Q386 259 362 274Z" />
<glyph unicode="d" glyph-name="d" horiz-adv-x="690" d="M459 737Q540 764 606 711Q636 678 639 638V-16Q636 -61 596 -94Q551 -126 496 -122Q455 -116 421 -93Q410 -90 396 -95Q354 -105 316 -108Q209 -114 121 -53Q73 -19 52 24Q8 122 13 218Q18 300 48 378Q99
481 191 511Q278 540 354 526Q378 521 381 523Q382 526 382 550V634Q386 654 392 674Q412 720 459 737ZM501 701Q444 695 428 649L425 632V528Q425 504 427 499Q433 490 441 486Q483 454 483 434Q480 420 466 423Q453 425 437 440Q405 467 367 478Q279 502 184
460Q164 453 144 435Q102 399 84 350Q36 216 72 89Q79 68 88 49Q140 -39 236 -57Q316 -76 407 -44Q538 8 466 110Q426 169 374 136L354 124Q297 87 257 126Q219 182 240 243Q248 269 261 283Q294 316 349 303Q393 295 413 242Q421 221 426 185Q432 177 446 175Q486
151 508 109Q531 62 525 25Q515 -15 481 -41Q457 -60 457 -62Q464 -70 475 -72Q519 -86 565 -63Q593 -45 597 -10V633Q595 654 581 673Q556 703 501 701ZM330 263Q305 263 290 249Q266 209 282 165Q293 146 315 153Q332 164 350 173Q360 179 370 183Q385 193 377
212Q370 253 330 263Z" />
<glyph unicode="e" glyph-name="e" horiz-adv-x="676" d="M303 527Q408 535 500 485Q596 431 626 337Q654 274 635 204Q629 189 633 171Q652 137 648 102Q642 62 618 22Q576 -54 475 -100Q434 -114 395 -120Q308 -133 212 -103Q121 -75 61 12Q20 81 13 184Q8 263
40 340Q83 441 165 484Q227 519 303 527ZM301 482Q215 474 138 410Q102 377 80 326Q43 238 63 136Q72 88 86 56Q138 -36 229 -63Q322 -92 416 -72Q487 -54 536 -11Q598 47 603 109Q607 143 580 169Q538 199 492 191Q459 185 441 147Q418 98 371 91Q322 79 271 103Q257
113 250 113Q202 128 191 176Q184 224 195 261Q206 290 239 306L269 314Q282 323 309 324Q379 331 420 304Q441 293 428 280Q424 278 395 278H264Q240 273 228 250Q208 205 233 165Q245 148 261 147L267 145H366Q390 145 395 147Q400 150 408 160Q429 206 465 218Q527
234 563 218Q587 207 589 208Q617 280 564 367Q512 443 438 466Q368 489 301 482Z" />
<glyph unicode="f" glyph-name="f" horiz-adv-x="456" d="M216 734L248 738H383Q404 734 423 724Q474 691 481 645Q481 635 482 622Q488 571 472 531Q457 505 438 495L420 482Q419 479 429 455Q452 381 423 320Q397 272 352 261Q343 260 334 258Q331 254 331 231V-5Q328
-46 298 -83Q281 -103 257 -112Q222 -128 165 -116Q88 -98 75 -8V234Q75 259 52 274Q9 296 0 340Q-13 411 1 452Q17 502 61 521Q70 521 75 533Q76 555 79 576Q84 642 136 696Q175 730 216 734ZM254 694Q192 694 154 654Q123 616 121 574Q117 535 117 501Q116 491
105 485Q94 484 83 481Q59 474 46 453Q25 412 38 354Q52 310 91 304H130Q156 297 141 273Q139 271 133 269Q124 272 118 263L117 237V-10Q120 -31 136 -50Q171 -83 221 -75Q248 -72 261 -59Q285 -37 289 -6V288Q290 298 304 303Q331 302 344 306Q394 324 397 373Q402
416 385 453Q363 481 329 485Q309 486 288 484Q271 488 273 504Q275 513 284 518Q287 519 317 519H385Q440 532 441 586Q442 602 440 618Q444 673 380 694H254Z" />
<glyph unicode="g" glyph-name="g" horiz-adv-x="692" d="M155 491Q289 551 418 506Q433 501 448 512Q495 529 548 519Q594 512 623 467Q640 439 640 409V102Q637 61 624 22Q594 -68 495 -110Q438 -135 373 -139H299Q213 -135 139 -103Q80 -76 40 -24Q-16 59 48
141Q53 149 50 159Q18 252 38 345Q48 382 79 425Q110 467 155 491ZM465 430Q346 515 197 461Q163 447 140 427Q97 386 84 345Q60 247 90 177Q98 160 122 171Q165 183 220 133Q269 94 341 92Q378 96 390 120Q391 132 406 132Q414 133 421 126Q430 109 410 86Q370
50 312 59Q290 61 272 66Q226 75 172 126Q153 141 132 138Q85 131 64 82Q36 21 114 -36Q202 -94 307 -97Q333 -97 362 -96Q454 -91 522 -46Q563 -15 580 28Q595 63 598 108V405Q595 455 547 472Q523 482 495 477Q470 472 487 457Q504 446 506 433T492 415Q481 416
465 430ZM286 333Q351 360 416 315Q458 266 422 215Q381 172 313 180Q262 189 238 229Q213 302 286 333ZM380 287Q342 305 301 292Q285 290 275 271Q269 249 288 236Q323 217 354 225Q387 227 395 264Q396 277 380 287Z" />
<glyph unicode="h" glyph-name="h" horiz-adv-x="676" d="M98 730Q162 745 216 713Q240 697 250 676Q261 652 264 628V540Q264 516 266 514Q267 513 291 519Q368 537 450 517Q488 509 530 481Q605 423 619 341L625 299V-17Q614 -92 543 -117L515 -124Q465 -128
416 -97Q384 -69 376 -17V217Q376 241 372 251Q363 267 344 268Q291 273 271 230Q266 221 264 207V-16Q258 -87 183 -118Q126 -131 86 -115Q60 -106 44 -87Q22 -58 15 -17V631Q24 704 98 730ZM184 681Q129 702 86 676Q62 659 57 624V-10Q61 -48 90 -68Q130 -88
172 -74Q216 -58 221 -17V204Q223 265 274 299Q289 307 321 313Q343 316 374 305Q416 285 419 241V-13Q424 -34 434 -53Q450 -73 473 -76Q519 -86 557 -63Q579 -43 582 -14V296Q580 333 562 376Q541 423 488 456Q403 500 306 477Q249 465 204 414Q194 399 182 394Q173
390 167 396Q150 410 176 435Q200 461 216 474Q224 484 221 508V626Q215 664 184 681Z" />
<glyph unicode="i" glyph-name="i" horiz-adv-x="348" d="M103 721Q179 760 249 707Q271 691 282 669Q321 591 285 513Q275 500 283 479L289 448V-4Q285 -50 258 -84Q242 -103 219 -112Q185 -122 153 -121Q105 -115 76 -82Q53 -51 48 -12V449Q51 470 56 487Q58
498 53 508Q12 603 64 684Q81 708 103 721ZM158 693Q96 683 77 614Q65 561 98 513Q156 452 217 496Q257 526 262 574Q268 616 241 657Q209 695 158 693ZM243 469Q237 473 228 463Q171 426 95 466Q93 464 87 440V434V-8Q93 -57 142 -74Q180 -86 224 -58Q248 -33
249 -4V447L247 457Q245 467 243 469Z" />
<glyph unicode="j" glyph-name="j" horiz-adv-x="348" d="M110 713Q180 762 257 715Q298 683 311 637Q330 574 298 503Q298 497 301 490Q307 470 309 451V8Q303 -35 290 -72Q276 -111 226 -148Q200 -165 166 -171Q123 -178 73 -150Q12 -111 -18 -38Q-34 -2 -22
51Q-6 116 50 138Q58 143 60 146Q61 149 61 173V448Q63 468 69 488Q73 509 61 528Q46 572 54 615Q57 667 110 713ZM190 693Q130 697 99 632Q77 569 116 512Q158 468 202 480Q239 492 259 523Q296 577 264 645Q237 690 190 693ZM269 439Q270 448 263 471Q256 475
244 464Q190 430 133 456Q109 469 107 468Q105 466 100 441V435V170L101 144Q106 134 117 132Q136 123 156 100Q186 80 183 66Q165 38 128 81Q97 116 54 93Q15 69 10 14V2Q16 -37 54 -79Q117 -148 187 -121Q228 -105 254 -54Q266 -22 269 8V439Z" />
<glyph unicode="k" glyph-name="k" horiz-adv-x="662" d="M122 737Q186 754 236 730Q285 703 295 658Q296 646 299 634V437Q299 411 324 426Q381 467 439 506Q499 548 559 518Q607 488 626 446Q663 371 622 320Q611 307 580 286L510 232Q497 224 497 214Q506 162
548 144L588 133Q610 129 634 102Q671 55 666 5Q653 -71 590 -108Q547 -131 495 -119Q459 -111 415 -91Q355 -61 316 -7Q300 18 300 -7Q298 -22 295 -37Q276 -108 198 -122Q160 -132 110 -112Q47 -82 42 -16V636Q52 712 122 737ZM165 699Q97 702 84 629V-10Q88
-57 139 -76Q181 -87 226 -65Q256 -42 257 -10V143Q258 155 269 161Q291 166 305 139Q310 132 311 119Q319 77 337 39Q357 -2 411 -38Q478 -80 543 -79Q587 -70 613 -20Q632 23 611 60Q600 82 575 91Q555 98 535 101Q492 115 468 166Q459 182 444 226Q418 276 374
274Q349 272 345 294Q343 300 351 307Q358 311 381 311Q404 309 421 302Q442 292 457 268Q463 253 475 262Q525 298 575 337Q597 350 600 375Q602 410 568 455Q527 499 486 482Q443 459 406 430Q346 386 286 344Q271 330 260 339Q257 343 257 374V628Q254 655 244
668Q210 703 165 699Z" />
<glyph unicode="l" glyph-name="l" horiz-adv-x="440" d="M134 743Q189 752 231 728Q280 696 287 633V239Q287 215 311 200Q359 176 378 140Q415 61 336 -34Q251 -121 165 -106Q96 -97 56 -26Q44 -1 38 47V633Q42 653 47 673Q75 732 134 743ZM146 701Q105 695
87 659Q83 647 79 624V48Q82 25 86 8Q93 -16 117 -36Q152 -66 200 -64Q293 -51 339 51Q354 81 342 118Q317 161 268 169Q233 173 207 134Q195 108 180 108Q173 106 167 119Q165 134 190 169Q208 193 239 203Q250 208 246 234V632Q243 667 213 690Q180 705 146 701Z"
/>
<glyph unicode="m" glyph-name="m" horiz-adv-x="892" d="M122 528Q183 545 223 526Q234 523 243 515Q259 506 273 513Q350 537 417 524Q446 517 472 503Q482 498 497 502Q606 550 711 513Q783 488 821 416Q837 385 840 352V-16Q838 -33 827 -56Q805 -107 758
-116Q703 -129 663 -113Q597 -86 589 -18V244Q588 257 580 264Q572 273 562 259Q560 255 560 231V-22Q554 -68 520 -99Q473 -132 405 -119Q381 -113 365 -100Q328 -71 324 -28V222Q324 246 321 256Q312 280 294 256Q293 253 293 229V-18Q283 -94 214 -116Q157 -129
116 -113Q98 -108 82 -94Q49 -65 43 -19V428Q47 448 53 468Q75 517 122 528ZM157 491Q100 489 86 424V-17Q90 -53 126 -69Q177 -88 217 -65Q243 -52 250 -15V258Q254 283 270 297Q298 322 330 308Q359 292 365 263Q368 252 368 223V-26Q381 -78 432 -78Q452 -79
478 -71Q514 -55 516 -18V257Q521 302 564 312Q608 318 629 267Q633 254 633 226V-20Q640 -55 676 -71Q718 -85 758 -68Q791 -52 796 -18V352Q791 403 735 451Q655 501 557 477Q511 468 478 432Q470 422 464 412Q448 390 435 412Q430 430 449 450Q459 466 434 473Q386
491 333 482Q290 475 253 457Q230 442 211 411Q192 393 183 412Q178 436 215 475Q212 487 202 487Q183 492 157 491Z" />
<glyph unicode="n" glyph-name="n" horiz-adv-x="716" d="M150 527Q204 537 259 508Q268 501 279 507Q407 558 538 494Q604 459 632 391Q649 353 654 306V-19Q646 -90 571 -118Q505 -137 444 -97Q400 -53 404 12V236Q403 254 386 264Q357 274 326 263Q295 243
292 206V-16Q277 -110 182 -124Q121 -127 81 -97Q37 -53 41 12V411Q50 508 150 527ZM215 478Q158 496 112 465Q89 446 84 406V-11Q89 -48 112 -66Q148 -85 192 -76Q240 -64 248 -18V202Q251 222 256 242Q283 312 359 314Q411 312 437 275Q444 265 447 245V-11Q452
-38 461 -51Q493 -85 544 -78Q601 -73 612 -17V298Q605 356 579 398Q549 442 504 462Q427 499 327 475Q272 466 212 395Q198 386 189 398Q181 417 203 439Q230 465 231 467Q229 476 215 478Z" />
<glyph unicode="o" glyph-name="o" horiz-adv-x="672" d="M334 528Q392 531 452 511Q497 494 532 470Q574 438 600 396Q623 357 635 316Q657 221 642 137Q625 48 565 -23Q526 -64 487 -84Q355 -150 225 -106Q107 -71 46 46Q17 116 13 182Q9 284 52 373Q101 465
192 503Q231 521 286 520Q306 517 334 528ZM344 484Q316 482 293 457Q255 416 271 364Q276 340 298 325Q311 318 338 315Q363 311 398 291Q453 245 438 177Q428 130 388 101Q342 78 300 90Q276 96 266 106Q227 142 224 188Q220 229 245 268Q269 294 269 298Q267
302 258 312Q215 373 245 448Q260 473 235 471Q152 456 93 358Q73 321 65 278Q43 180 74 89Q106 -5 207 -52Q253 -69 287 -75Q398 -97 509 -17Q550 18 573 68Q600 121 605 185Q610 266 581 339Q558 402 486 446Q420 487 344 484ZM331 270Q305 274 281 241Q262 216
269 181Q287 116 358 134Q391 149 396 188Q397 202 395 218Q393 228 388 238Q370 266 331 270Z" />
<glyph unicode="p" glyph-name="p" horiz-adv-x="694" d="M123 529Q179 546 242 516Q258 502 282 514Q329 531 387 529Q483 522 547 474Q657 385 667 238Q669 208 668 177Q663 91 618 17Q608 -2 582 -27Q525 -76 462 -92Q400 -108 317 -94Q297 -85 288 -96Q273
-143 224 -161Q157 -183 97 -152Q50 -123 44 -77L41 -61V429Q46 474 83 509Q98 521 123 529ZM158 490Q130 487 114 478Q91 460 88 439Q85 430 83 419V-57Q88 -83 99 -97Q135 -134 186 -123Q213 -120 226 -111Q250 -89 250 -69Q246 -61 235 -56Q186 -29 169 14Q164
26 161 54Q155 90 184 134Q208 173 240 183Q248 185 251 188Q256 193 256 207Q257 228 263 247Q270 274 283 287Q315 320 364 315Q420 307 439 252Q452 202 437 161Q414 114 365 121Q328 127 285 148Q240 163 209 114Q185 72 201 29Q210 6 230 -11Q268 -40 310
-47Q413 -67 463 -46Q565 -18 608 98Q637 189 617 280Q600 384 502 451Q448 481 385 484Q304 490 226 435Q209 419 194 424Q172 437 201 464Q216 478 213 481Q189 492 158 490ZM385 259Q360 284 319 261Q303 243 299 212Q293 195 311 186Q339 169 366 166Q384 164
391 172Q409 202 397 239Q394 249 385 259Z" />
<glyph unicode="q" glyph-name="q" horiz-adv-x="696" d="M448 519Q503 548 570 526Q633 505 645 426V-63Q639 -123 583 -154Q529 -184 454 -157Q416 -144 395 -96Q389 -86 376 -91Q317 -102 263 -100Q176 -93 103 -29Q65 7 48 50Q-7 181 33 321Q45 362 69 401Q137
495 226 517Q278 532 328 529Q368 527 408 512Q426 503 448 519ZM548 487Q513 496 480 486L468 478Q468 476 490 457Q507 439 493 425Q484 418 473 425Q345 519 213 468Q171 451 131 409Q94 367 82 329Q34 185 90 65Q113 15 161 -19Q267 -80 386 -43Q424 -37 466
3Q495 42 490 76Q488 95 473 116Q436 169 392 146Q350 124 315 121Q276 120 254 157Q225 220 260 280Q279 306 298 309Q414 337 429 212Q427 195 435 186L456 178Q491 158 515 104Q532 56 515 15Q500 -24 452 -52Q424 -64 439 -87Q453 -112 476 -118Q510 -132 556
-118Q595 -107 602 -56V422Q597 473 548 487ZM323 271Q295 267 286 237Q278 206 294 177Q309 153 353 176Q381 186 387 199Q388 217 380 240Q365 276 323 271Z" />
<glyph unicode="r" glyph-name="r" horiz-adv-x="502" d="M134 527Q183 533 218 518Q235 506 248 512Q338 551 418 502Q462 471 484 428Q523 359 504 291Q495 245 448 217Q370 175 312 226Q292 252 289 229V223V-8Q285 -28 279 -48Q262 -96 216 -114Q176 -130
132 -118Q88 -114 56 -69Q43 -47 39 -14V413L45 453Q63 513 134 527ZM152 484Q120 482 99 464Q82 446 80 410V-8Q85 -58 133 -76Q183 -86 219 -62Q241 -45 243 -23L247 -4V238Q250 274 263 298Q303 341 324 289Q345 233 394 243Q430 252 449 273Q478 314 466 361Q454
438 368 478Q306 500 231 452Q211 440 194 418Q187 407 178 405Q165 406 162 418Q160 430 177 450Q198 473 198 476Q196 482 186 483Q169 485 152 484Z" />
<glyph unicode="s" glyph-name="s" horiz-adv-x="670" d="M131 484Q221 534 341 529Q428 523 501 485Q611 416 624 322Q628 296 610 261Q598 250 610 231Q665 144 641 65Q620 -19 524 -78Q486 -101 444 -112Q289 -144 154 -88Q138 -85 114 -66Q50 -18 24 53Q0
126 30 187Q35 197 43 207Q52 218 50 227Q22 303 41 377Q62 441 131 484ZM350 483Q308 490 208 469Q144 456 94 387Q60 324 92 242Q97 238 121 240Q174 247 210 215Q237 191 244 162Q251 149 261 149Q309 139 401 129Q411 129 421 123Q436 115 436 103Q430 92 411
92Q350 84 265 106Q230 111 213 151Q192 202 145 207Q98 211 68 168Q22 65 144 -34Q183 -57 224 -67Q258 -74 308 -79H361Q456 -74 521 -30Q568 6 592 53Q623 130 576 204Q566 219 552 220Q540 219 527 215Q506 211 473 214Q428 211 399 260Q392 277 373 280Q326
288 293 291Q258 293 243 308Q237 315 241 321Q249 329 269 329H328Q347 327 368 323Q409 311 435 266Q445 253 470 248Q521 239 555 263Q577 281 579 302Q583 364 510 425Q434 478 350 483Z" />
<glyph unicode="t" glyph-name="t" horiz-adv-x="504" d="M179 714Q241 731 282 710Q331 687 342 641L349 610Q349 575 350 538Q353 535 355 534Q400 536 433 521Q453 512 469 488Q505 430 482 356Q465 307 418 291Q400 286 377 286Q353 286 351 281Q349 277 349
250L350 220Q355 210 366 211Q415 203 445 167Q500 97 448 7Q418 -49 363 -84Q334 -102 283 -108Q234 -114 190 -92Q149 -73 120 -23Q105 7 100 47V255Q100 279 99 282Q93 288 82 288Q35 295 9 343Q-10 389 0 444Q2 464 13 484Q40 528 87 532Q97 535 99 537Q100
539 100 563V612Q107 685 179 714ZM241 675Q206 679 185 669Q160 660 151 639Q144 622 142 604V535Q142 505 140 500Q135 489 127 489Q62 497 42 449Q29 399 49 358Q73 327 116 329Q131 333 140 321Q142 316 142 286V50Q147 -27 220 -56Q253 -71 310 -57Q373 -40
415 36Q427 62 429 76Q440 123 394 155Q323 198 282 115Q267 88 250 96Q235 105 249 129Q263 157 273 169Q287 185 298 192Q303 197 306 201Q307 206 307 230V283Q307 313 308 316Q312 324 319 328Q323 330 353 330Q391 325 422 340Q452 365 449 423Q445 476 398
487Q393 487 387 489Q354 489 320 490Q308 495 307 507V611Q296 671 241 675Z" />
<glyph unicode="u" glyph-name="u" horiz-adv-x="706" d="M89 515Q152 552 220 527Q273 504 284 462Q289 445 291 427V188Q291 164 295 154Q306 140 324 138Q394 129 404 210V432Q413 507 486 530Q546 543 576 529Q620 518 644 465Q650 446 654 427V-4Q652 -21
644 -44Q637 -66 615 -86Q539 -147 441 -107Q424 -97 411 -101Q312 -136 229 -115Q181 -105 149 -84Q55 -17 46 69Q43 88 41 107V432Q46 484 89 515ZM150 491Q92 483 83 426V113Q86 72 100 33Q119 -9 165 -42Q221 -76 284 -79Q365 -81 418 -47Q448 -30 474 5Q489
22 504 9Q516 -12 480 -40Q465 -50 458 -61Q458 -65 483 -74Q536 -88 580 -58Q610 -35 611 -2V425L606 445Q581 499 519 492Q499 490 479 481Q450 459 446 426V209Q444 189 440 169Q427 124 377 101Q337 86 297 99Q254 115 248 161V425Q245 461 213 482Q177 495
150 491Z" />
<glyph unicode="v" glyph-name="v" horiz-adv-x="670" d="M54 513Q112 547 174 532Q217 521 243 469Q279 376 317 282Q328 257 338 279L402 434Q409 462 432 494Q448 515 471 525Q535 553 606 512Q675 460 657 396Q650 365 626 316L482 -24Q461 -69 412 -99Q342
-138 272 -114Q202 -91 166 -21Q100 139 30 299Q-14 387 -2 437Q7 478 54 513ZM162 489Q119 501 76 472Q28 438 40 396Q48 366 71 316L172 76Q187 36 206 -4Q234 -54 279 -69Q315 -87 366 -72Q440 -42 458 29Q534 209 611 389L618 409Q624 430 605 454Q582 478
562 484Q512 502 482 481Q462 467 451 443Q402 323 354 203Q345 182 355 163Q363 143 372 123Q385 98 371 85Q366 80 357 84Q348 91 343 101Q299 208 216 421Q208 441 199 461Q185 483 162 489Z" />
<glyph unicode="w" glyph-name="w" horiz-adv-x="852" d="M121 534Q158 540 188 528Q235 505 247 458L262 404Q269 379 277 406L287 444Q306 506 368 530Q429 544 469 526Q515 508 536 460L560 383Q569 356 574 381Q591 465 614 495Q628 515 652 526Q693 541 727
535Q773 526 807 497Q842 465 839 423Q825 359 795 263L712 -17Q702 -63 659 -96Q627 -119 581 -123Q529 -126 488 -98Q447 -67 432 -20Q426 0 421 21Q414 45 407 21L398 -9Q386 -57 341 -92Q276 -137 206 -116Q149 -101 121 -38Q114 -18 110 2L21 322Q6 371 0
416Q-8 464 41 503Q82 531 121 534ZM170 488Q132 499 83 477Q34 449 45 409Q80 261 153 9Q158 -13 167 -31Q177 -51 201 -67Q262 -96 316 -55Q339 -38 349 -17Q355 -4 361 23Q375 78 391 133Q397 147 389 163Q373 213 361 263Q358 275 365 283Q382 296 392 275Q411
230 420 195L474 -5Q487 -52 534 -72Q582 -88 622 -67Q645 -55 658 -34Q673 0 685 46Q731 206 779 366L796 426Q796 445 783 460Q750 489 708 492Q659 496 634 445Q615 365 597 285Q590 262 592 245L620 165Q627 153 624 139Q624 131 611 128Q603 127 594 139Q582
164 565 219Q530 329 496 439Q492 460 464 479Q426 503 373 484Q351 475 337 451Q325 416 316 381L293 301Q285 283 289 271L310 191Q317 172 320 151Q322 137 304 135Q296 134 291 146Q247 290 201 456Q192 478 170 488Z" />
<glyph unicode="x" glyph-name="x" horiz-adv-x="700" d="M142 531Q190 543 237 505L324 420Q349 390 362 402Q416 455 471 508Q547 562 617 499Q678 448 668 378Q661 343 621 303Q587 272 553 237Q538 224 537 217Q536 208 547 199Q595 153 643 105Q697 44 673
-16Q657 -62 614 -92Q544 -142 476 -91Q419 -35 362 23Q350 33 337 24Q277 -37 218 -94Q141 -156 56 -70Q-34 34 88 137L140 187Q143 188 146 191Q157 203 160 208Q162 213 145 236Q105 274 65 314Q36 352 33 389Q30 431 63 474Q95 515 142 531ZM213 469Q163 510
119 468Q51 409 92 352L196 247Q211 236 225 248Q273 265 328 222Q339 213 346 205Q399 150 378 96Q371 84 375 72Q378 68 402 44Q451 -4 501 -54Q548 -95 601 -46Q610 -39 618 -29Q661 29 601 84L514 170Q494 198 469 184Q430 172 389 201Q302 271 326 337Q331
349 323 361Q268 414 213 469ZM582 471Q537 509 489 465Q453 428 415 391Q343 336 362 285Q388 233 430 219Q464 205 511 258Q559 304 609 355Q653 413 582 471ZM334 163Q270 248 211 194Q160 143 104 91Q26 25 88 -39Q127 -84 169 -72Q187 -67 208 -44Q265 16
325 74Q346 95 347 123Q345 151 334 163Z" />
<glyph unicode="y" glyph-name="y" horiz-adv-x="618" d="M64 515Q112 551 161 548Q207 543 237 509Q257 483 277 429Q284 409 294 389L305 365Q316 341 325 367Q338 405 352 444Q359 464 368 484Q394 534 438 544Q496 557 558 517Q623 465 604 393Q601 378 590
353L468 33Q429 -58 331 -106Q249 -140 125 -110Q83 -96 45 -67Q-14 -11 2 65Q10 132 83 168Q109 176 99 200Q63 277 24 354Q16 374 12 394Q0 436 28 479Q35 493 64 515ZM136 502Q85 488 61 450Q51 435 51 414Q57 378 81 334Q143 205 189 114Q238 52 307 106Q363
149 324 213L221 453Q191 514 136 502ZM453 502Q437 499 423 486Q407 471 399 446L342 286Q335 266 346 246Q354 226 363 206Q370 192 372 172Q376 124 334 85Q297 57 254 47Q198 37 159 100Q130 163 68 107Q36 70 43 21Q48 -23 99 -50Q182 -92 286 -74Q373 -57
426 46Q489 206 549 366Q560 391 564 406Q576 451 530 483Q490 508 453 502Z" />
<glyph unicode="z" glyph-name="z" horiz-adv-x="598" d="M75 506Q92 515 114 519H439Q484 513 519 490Q539 473 551 453Q612 350 513 248L418 167Q392 144 418 144H488Q535 140 565 101Q603 41 580 -33Q555 -96 492 -105H149Q129 -103 109 -99Q64 -91 29 -54Q-2
-16 0 33Q3 79 21 113Q41 144 98 193L158 248Q184 271 158 271H117Q44 282 25 359Q15 428 40 470Q51 490 75 506ZM121 474Q82 470 67 422Q56 374 83 335Q97 319 122 314H211Q235 314 245 318Q254 322 265 333Q283 354 300 363Q313 368 320 354Q322 342 311 332Q263
283 149 179Q129 161 109 142Q31 83 43 16Q52 -32 101 -50Q119 -58 142 -60H488Q539 -50 545 1Q549 27 543 48Q530 96 486 100H365Q341 100 331 96Q320 90 308 76Q290 49 270 50Q247 63 267 85Q344 162 445 248Q537 313 532 381Q527 426 489 457Q467 469 434 474H121Z"
/>
<glyph unicode="{" glyph-name="braceleft" horiz-adv-x="462" d="M255 744Q332 771 409 750Q429 746 449 725Q479 698 484 657Q489 601 456 561Q431 530 397 525L373 523Q366 517 369 495Q371 476 374 456Q377 394 345 339Q339 329 337 319Q338 311 346 299Q365
263 371 219Q374 183 367 114Q372 105 378 106Q402 102 418 96Q461 75 479 25Q494 -26 468 -71Q440 -116 394 -123Q319 -140 258 -117Q210 -100 178 -69Q129 -20 121 51Q119 82 125 143L129 183Q131 192 120 203L80 231Q21 284 48 357Q64 393 107 419Q126 432 128
438Q131 445 128 464L123 513V573L129 613Q151 704 255 744ZM400 707Q339 726 256 699Q182 666 167 590Q161 521 168 481Q177 441 162 411Q156 396 137 386Q69 350 82 296Q90 274 114 260Q138 243 154 228Q177 200 168 166Q160 109 163 59Q168 12 192 -21Q210 -45
231 -56Q314 -104 404 -76Q428 -63 436 -40Q459 19 404 55Q387 60 364 62Q333 62 327 96Q324 104 325 125Q336 173 328 229Q317 273 287 309Q272 324 266 337Q265 344 271 350Q279 357 288 349Q302 342 313 369Q339 421 331 456L325 513Q322 543 339 561Q353 570
373 567Q397 564 416 581Q450 609 442 655Q435 690 400 707Z" />
<glyph unicode="|" glyph-name="bar" horiz-adv-x="382" d="M131 754Q194 780 255 748Q313 712 316 648V-5Q313 -28 307 -45Q286 -103 223 -118Q178 -129 137 -114Q104 -102 79 -70Q65 -41 59 -3V643L66 683Q79 730 131 754ZM229 714Q179 733 132 705Q103 686
99 641V-1Q104 -27 108 -38Q125 -61 145 -69Q225 -96 266 -38Q273 -25 276 0V641Q272 666 265 681Q247 709 229 714Z" />
<glyph unicode="}" glyph-name="braceright" horiz-adv-x="462" d="M120 752Q189 771 279 741Q348 712 383 643Q405 592 401 538L394 458Q389 434 415 423Q520 353 466 258Q445 226 410 209Q396 203 394 182Q399 147 402 112Q414 17 356 -58Q277 -141 150 -127Q126
-125 110 -120Q87 -111 69 -91Q22 -32 50 38Q76 98 133 104Q158 109 155 132Q139 220 176 294Q198 319 177 344Q159 379 154 420Q154 452 158 517Q148 529 129 525Q105 528 89 539Q35 577 40 652Q43 670 51 692Q74 741 120 752ZM162 715Q142 714 122 707Q102 696
95 683Q70 644 89 602Q102 576 124 570Q140 569 157 569Q173 568 183 563Q194 553 199 531Q201 501 196 471Q188 412 215 362Q226 336 239 351Q245 356 251 353Q264 337 242 315Q188 250 192 178Q195 149 199 118Q203 79 172 65L132 60Q86 44 83 3Q78 -15 86 -37Q103
-80 146 -83Q219 -95 285 -59Q353 -18 361 54Q363 101 356 152Q353 174 353 191Q355 225 390 247Q406 257 424 272Q465 320 418 367Q398 382 378 395Q356 411 354 433Q353 452 353 471Q367 574 349 615Q331 661 287 689Q228 718 162 715Z" />
<glyph unicode="~" glyph-name="asciitilde" horiz-adv-x="742" d="M145 384Q291 447 425 319Q442 308 455 306Q473 298 481 318Q493 343 505 358Q523 379 544 386Q605 404 664 359Q722 302 708 239Q703 202 683 159Q664 114 618 74Q495 -5 382 52Q338 74 302
105Q282 125 262 130Q248 135 234 116Q218 72 167 49Q110 38 55 85Q8 133 14 196Q21 257 64 316Q99 361 145 384ZM221 360Q134 357 79 255Q51 205 60 159Q79 108 127 94L147 91Q170 92 184 116Q206 169 249 176Q292 179 348 123Q436 56 520 77Q589 90 632 156Q656
195 666 255Q668 325 592 345Q555 353 534 324Q522 304 512 284Q494 260 474 259Q435 257 394 288Q309 368 221 360Z" />
</font>
</defs>
</svg>
